{"glyphs":{"0":{"ha":765,"x_min":66,"x_max":700,"o":"m 700 497 q 683 282 700 377 q 627 121 665 187 q 528 21 589 56 q 382 -14 468 -14 q 242 21 302 -14 q 144 121 183 56 q 86 282 105 187 q 66 497 66 377 q 84 712 66 617 q 139 872 101 807 q 236 972 176 938 q 382 1007 296 1007 q 522 973 463 1007 q 621 873 582 939 q 680 713 661 808 q 700 497 700 618 m 192 497 q 202 319 192 395 q 235 193 212 243 q 293 117 257 142 q 382 92 330 92 q 471 117 434 92 q 531 192 507 142 q 565 318 554 242 q 575 497 575 395 q 565 675 575 599 q 531 801 554 751 q 471 876 507 851 q 382 901 434 901 q 293 876 330 901 q 235 801 257 851 q 202 675 212 751 q 192 497 192 599 z "},"1":{"ha":765,"x_min":121,"x_max":482,"o":"m 482 0 l 363 0 l 363 619 q 363 682 363 648 q 365 748 363 715 q 367 811 366 781 q 368 864 368 841 q 348 843 357 852 q 330 826 339 834 q 311 809 321 818 q 286 787 300 800 l 186 705 l 121 789 l 380 991 l 482 991 l 482 0 z "},"2":{"ha":765,"x_min":65,"x_max":684,"o":"m 684 0 l 65 0 l 65 106 l 302 364 q 393 465 353 419 q 461 553 433 510 q 505 641 490 597 q 519 736 519 684 q 508 806 519 776 q 475 858 496 837 q 425 890 454 880 q 359 901 395 901 q 243 875 295 901 q 144 808 191 849 l 75 889 q 134 935 102 913 q 201 972 165 956 q 277 997 237 987 q 361 1006 317 1006 q 478 987 426 1006 q 568 935 531 969 q 624 851 604 901 q 644 741 644 802 q 626 631 644 683 q 577 528 608 578 q 502 427 545 477 q 407 321 458 376 l 216 118 l 216 113 l 684 113 l 684 0 z "},"3":{"ha":765,"x_min":56,"x_max":682,"o":"m 652 760 q 636 669 652 710 q 592 599 621 629 q 525 550 564 569 q 437 522 486 530 l 437 518 q 620 442 557 503 q 682 282 682 380 q 660 163 682 217 q 593 69 638 109 q 480 8 549 30 q 318 -14 412 -14 q 179 -2 244 -14 q 56 40 113 9 l 56 155 q 183 107 115 124 q 315 90 252 90 q 423 104 378 90 q 498 142 469 117 q 542 204 528 168 q 555 286 555 241 q 537 365 555 332 q 486 419 519 398 q 405 451 453 441 q 297 461 357 461 l 207 461 l 207 564 l 297 564 q 395 577 352 564 q 466 616 437 591 q 510 675 495 641 q 525 751 525 710 q 513 814 525 787 q 478 862 500 842 q 425 891 456 881 q 355 901 393 901 q 228 879 283 901 q 122 819 172 856 l 60 904 q 117 943 85 925 q 186 976 149 962 q 266 998 223 989 q 355 1006 308 1006 q 484 987 429 1006 q 576 936 539 969 q 633 858 614 903 q 652 760 652 813 z "},"4":{"ha":765,"x_min":16,"x_max":737,"o":"m 737 222 l 593 222 l 593 0 l 473 0 l 473 222 l 16 222 l 16 330 l 465 997 l 593 997 l 593 335 l 737 335 l 737 222 m 473 335 l 473 576 q 474 656 473 614 q 477 738 475 698 q 480 812 478 777 q 482 869 481 846 l 476 869 q 464 839 471 856 q 449 806 457 823 q 431 774 440 789 q 415 747 422 758 l 136 335 l 473 335 z "},"5":{"ha":765,"x_min":89,"x_max":688,"o":"m 370 608 q 495 590 437 608 q 596 534 553 571 q 663 444 639 498 q 688 318 688 389 q 665 179 688 241 q 596 75 642 117 q 484 9 551 32 q 330 -14 417 -14 q 262 -10 296 -14 q 198 0 229 -7 q 139 16 167 6 q 89 40 111 26 l 89 157 q 141 129 111 141 q 205 109 172 117 q 272 96 238 100 q 334 92 305 92 q 429 104 387 92 q 500 143 471 117 q 545 210 530 170 q 561 304 561 250 q 501 453 561 401 q 328 504 441 504 q 288 502 309 504 q 245 498 267 500 q 204 492 224 495 q 171 486 185 489 l 110 525 l 147 991 l 615 991 l 615 879 l 254 879 l 228 595 q 285 604 250 599 q 370 608 321 608 z "},"6":{"ha":765,"x_min":77,"x_max":701,"o":"m 77 424 q 84 566 77 495 q 109 701 91 636 q 158 821 127 766 q 237 918 189 877 q 353 982 286 959 q 510 1006 420 1006 q 538 1005 523 1006 q 570 1003 554 1004 q 601 999 586 1001 q 627 993 615 996 l 627 888 q 573 900 603 896 q 514 904 543 904 q 407 889 453 904 q 326 848 360 875 q 270 785 292 822 q 233 704 247 749 q 212 610 218 660 q 203 505 205 559 l 211 505 q 244 551 224 530 q 289 588 263 572 q 347 612 315 603 q 419 621 379 621 q 536 601 484 621 q 625 542 588 581 q 681 447 661 503 q 701 319 701 391 q 680 180 701 242 q 620 76 659 119 q 525 9 581 33 q 400 -14 469 -14 q 273 13 332 -14 q 170 94 214 39 q 102 230 127 148 q 77 424 77 312 m 399 90 q 473 104 439 90 q 531 146 507 118 q 569 217 555 174 q 582 319 582 260 q 571 405 582 367 q 537 469 559 442 q 481 509 515 495 q 403 524 448 524 q 320 508 357 524 q 256 466 282 492 q 215 408 229 441 q 200 343 200 376 q 213 253 200 298 q 250 172 225 208 q 312 113 275 136 q 399 90 349 90 z "},"7":{"ha":765,"x_min":61,"x_max":699,"o":"m 191 0 l 572 879 l 61 879 l 61 991 l 699 991 l 699 893 l 322 0 l 191 0 z "},"8":{"ha":765,"x_min":72,"x_max":694,"o":"m 383 1007 q 491 992 440 1007 q 579 947 541 977 q 640 873 618 918 q 663 768 663 828 q 649 686 663 723 q 612 620 635 650 q 555 567 588 591 q 485 525 523 544 q 562 478 524 504 q 629 420 600 452 q 676 348 659 388 q 694 258 694 308 q 672 145 694 196 q 608 60 649 95 q 510 5 567 24 q 383 -14 452 -14 q 251 5 309 -14 q 153 57 193 23 q 93 141 113 92 q 72 253 72 191 q 87 345 72 304 q 128 418 102 385 q 189 475 154 450 q 264 519 224 500 q 201 565 231 541 q 151 621 172 590 q 117 688 130 651 q 104 770 104 725 q 127 873 104 829 q 189 947 150 918 q 278 992 227 977 q 383 1007 328 1007 m 193 252 q 204 185 193 216 q 238 134 215 155 q 296 101 261 113 q 380 89 332 89 q 464 101 428 89 q 525 135 500 113 q 562 188 549 157 q 574 257 574 219 q 561 321 574 292 q 523 374 547 349 q 463 420 498 398 q 386 463 429 441 l 366 472 q 237 379 280 431 q 193 252 193 326 m 382 904 q 268 868 310 904 q 225 764 225 832 q 237 697 225 725 q 270 648 249 669 q 320 609 291 626 q 385 575 350 591 q 446 608 417 590 q 496 648 475 625 q 530 699 517 670 q 542 764 542 727 q 499 868 542 832 q 382 904 456 904 z "},"9":{"ha":765,"x_min":72,"x_max":697,"o":"m 697 568 q 690 426 697 497 q 665 291 683 355 q 616 171 647 227 q 536 74 585 115 q 421 10 488 33 q 264 -14 354 -14 q 235 -13 251 -14 q 204 -11 220 -12 q 174 -7 189 -9 q 147 -1 159 -5 l 147 104 q 201 92 171 96 q 260 87 231 87 q 410 119 351 87 q 504 206 469 151 q 553 333 538 260 q 571 486 568 406 l 562 486 q 530 441 549 462 q 485 404 511 420 q 427 380 459 389 q 354 371 394 371 q 237 391 290 371 q 149 450 185 411 q 92 544 112 488 q 72 672 72 600 q 93 811 72 749 q 154 917 115 873 q 249 983 193 960 q 374 1006 304 1006 q 501 979 442 1006 q 604 899 560 953 q 672 762 647 844 q 697 568 697 680 m 375 901 q 301 888 334 901 q 243 846 267 874 q 205 774 218 817 q 192 672 192 731 q 203 587 192 625 q 237 523 214 549 q 293 482 259 496 q 371 468 326 468 q 454 484 417 468 q 518 525 492 500 q 559 583 545 551 q 574 648 574 616 q 561 739 574 694 q 524 820 549 784 q 462 879 499 857 q 375 901 425 901 z "}," ":{"ha":361,"x_min":0,"x_max":0,"o":""},"!":{"ha":374,"x_min":100,"x_max":272,"o":"m 228 281 l 146 281 l 111 991 l 262 991 l 228 281 m 100 75 q 106 119 100 101 q 125 148 113 137 q 152 164 136 159 q 186 170 168 170 q 219 164 203 170 q 247 148 235 159 q 265 119 258 137 q 272 75 272 101 q 265 32 272 50 q 247 3 258 14 q 219 -14 235 -9 q 186 -20 203 -20 q 152 -14 168 -20 q 125 3 136 -9 q 106 32 113 14 q 100 75 100 50 z "},"\"":{"ha":558,"x_min":90,"x_max":468,"o":"m 224 991 l 196 633 l 118 633 l 90 991 l 224 991 m 468 991 l 440 633 l 363 633 l 335 991 l 468 991 z "},"#":{"ha":897,"x_min":35,"x_max":863,"o":"m 667 606 l 624 383 l 814 383 l 814 290 l 606 290 l 550 0 l 450 0 l 507 290 l 310 290 l 254 0 l 157 0 l 210 290 l 35 290 l 35 383 l 228 383 l 272 606 l 86 606 l 86 699 l 289 699 l 345 991 l 444 991 l 389 699 l 587 699 l 644 991 l 742 991 l 685 699 l 863 699 l 863 606 l 667 606 m 328 383 l 525 383 l 568 606 l 371 606 l 328 383 z "},"$":{"ha":765,"x_min":83,"x_max":668,"o":"m 668 302 q 651 216 668 255 q 603 149 634 178 q 526 102 571 121 q 424 75 481 83 l 424 -81 l 330 -81 l 330 69 q 262 72 296 69 q 195 81 227 75 q 134 96 162 87 q 83 117 105 105 l 83 233 q 135 211 106 222 q 197 191 165 200 q 264 177 230 182 q 330 171 298 171 l 330 465 q 225 508 270 486 q 152 559 181 530 q 109 625 123 588 q 94 713 94 663 q 111 796 94 758 q 158 862 127 833 q 233 908 189 890 q 330 932 277 926 l 330 1054 l 424 1054 l 424 935 q 549 917 492 931 q 652 882 606 903 l 607 783 q 522 814 569 800 q 424 832 474 828 l 424 546 q 529 503 484 525 q 606 452 575 480 q 652 388 637 424 q 668 302 668 351 m 549 302 q 542 343 549 325 q 520 377 535 362 q 482 406 506 393 q 424 431 458 418 l 424 178 q 518 220 487 187 q 549 302 549 254 m 214 711 q 219 668 214 687 q 239 632 225 648 q 275 604 252 616 q 330 579 297 591 l 330 829 q 242 788 270 819 q 214 711 214 758 z "},"%":{"ha":1146,"x_min":69,"x_max":1076,"o":"m 170 696 q 194 528 170 584 q 272 472 218 472 q 378 696 378 472 q 272 918 378 918 q 194 863 218 918 q 170 696 170 808 m 478 696 q 466 564 478 623 q 429 466 454 506 q 365 405 404 426 q 272 383 326 383 q 184 405 222 383 q 121 466 146 426 q 82 564 95 506 q 69 696 69 623 q 81 827 69 769 q 118 924 93 884 q 181 985 142 964 q 272 1006 219 1006 q 361 985 323 1006 q 426 924 399 964 q 465 827 452 884 q 478 696 478 769 m 768 298 q 792 131 768 186 q 871 75 817 75 q 977 298 977 75 q 871 521 977 521 q 792 466 817 521 q 768 298 768 410 m 1076 298 q 1064 167 1076 225 q 1027 69 1053 109 q 963 8 1002 29 q 871 -14 924 -14 q 783 8 821 -14 q 719 69 745 29 q 681 167 694 109 q 668 298 668 225 q 680 429 668 372 q 716 527 692 487 q 780 587 741 566 q 871 608 818 608 q 960 587 922 608 q 1024 527 998 566 q 1063 429 1050 487 q 1076 298 1076 372 m 903 991 l 353 0 l 245 0 l 796 991 l 903 991 z "},"&":{"ha":975,"x_min":74,"x_max":953,"o":"m 286 790 q 292 745 286 767 q 308 701 297 723 q 337 656 319 679 q 379 608 355 633 q 448 653 419 632 q 496 696 477 674 q 525 741 515 718 q 534 793 534 765 q 526 838 534 817 q 502 873 517 859 q 463 897 486 888 q 412 905 441 905 q 320 875 354 905 q 286 790 286 845 m 378 96 q 450 103 417 96 q 512 125 484 111 q 565 157 541 138 q 611 196 589 175 l 349 472 q 286 428 313 450 q 240 382 259 407 q 212 329 222 358 q 203 262 203 300 q 215 195 203 226 q 249 142 227 164 q 304 108 271 120 q 378 96 336 96 m 74 258 q 87 353 74 311 q 127 428 101 394 q 191 491 153 462 q 277 549 229 520 q 235 599 256 573 q 200 655 215 625 q 175 718 184 684 q 165 790 165 751 q 182 881 165 841 q 231 950 199 922 q 310 992 263 978 q 416 1007 357 1007 q 517 992 473 1007 q 592 950 562 978 q 640 881 623 922 q 656 790 656 841 q 639 710 656 747 q 593 641 622 673 q 528 583 565 610 q 450 532 491 556 l 689 279 q 722 319 707 299 q 748 363 736 340 q 769 412 760 386 q 785 471 778 439 l 909 471 q 885 388 899 426 q 853 317 871 351 q 813 255 836 284 q 765 199 791 227 l 953 0 l 800 0 l 686 117 q 621 62 653 86 q 551 21 588 38 q 473 -4 515 5 q 378 -14 431 -14 q 250 4 307 -14 q 154 57 193 22 q 95 143 115 92 q 74 258 74 193 z "},"'":{"ha":314,"x_min":90,"x_max":224,"o":"m 224 991 l 196 633 l 118 633 l 90 991 l 224 991 z "},"(":{"ha":418,"x_min":56,"x_max":376,"o":"m 56 380 q 68 548 56 465 q 105 708 80 630 q 169 857 130 785 q 260 991 207 928 l 376 991 q 232 704 281 861 q 183 382 183 547 q 196 221 183 301 q 232 64 208 141 q 292 -84 256 -12 q 375 -220 328 -156 l 260 -220 q 169 -89 207 -159 q 105 57 130 -19 q 68 215 80 134 q 56 380 56 296 z "},")":{"ha":418,"x_min":41,"x_max":363,"o":"m 363 380 q 351 215 363 296 q 313 57 338 134 q 249 -89 288 -19 q 158 -220 211 -159 l 43 -220 q 125 -84 90 -156 q 186 64 161 -12 q 222 221 210 141 q 235 382 235 301 q 186 704 235 547 q 41 991 137 861 l 158 991 q 249 857 211 928 q 313 708 288 785 q 351 548 338 630 q 363 380 363 465 z "},"*":{"ha":765,"x_min":56,"x_max":708,"o":"m 450 1055 l 421 789 l 690 864 l 708 733 l 452 714 l 618 493 l 497 428 l 378 671 l 271 428 l 146 493 l 310 714 l 56 733 l 75 864 l 340 789 l 311 1055 l 450 1055 z "},"+":{"ha":765,"x_min":69,"x_max":696,"o":"m 332 439 l 69 439 l 69 541 l 332 541 l 332 804 l 433 804 l 433 541 l 696 541 l 696 439 l 433 439 l 433 178 l 332 178 l 332 439 z "},",":{"ha":347,"x_min":43,"x_max":256,"o":"m 245 161 l 256 146 q 233 68 246 109 q 204 -16 220 26 q 171 -99 188 -58 q 136 -179 153 -141 l 43 -179 q 63 -93 53 -138 q 82 -4 73 -48 q 98 83 91 41 q 111 161 106 125 l 245 161 z "},"-":{"ha":447,"x_min":56,"x_max":392,"o":"m 56 315 l 56 429 l 392 429 l 392 315 l 56 315 z "},".":{"ha":372,"x_min":100,"x_max":272,"o":"m 100 75 q 106 119 100 101 q 125 148 113 137 q 152 164 136 159 q 186 170 168 170 q 219 164 203 170 q 247 148 235 159 q 265 119 258 137 q 272 75 272 101 q 265 32 272 50 q 247 3 258 14 q 219 -14 235 -9 q 186 -20 203 -20 q 152 -14 168 -20 q 125 3 136 -9 q 106 32 113 14 q 100 75 100 50 z "},"/":{"ha":518,"x_min":14,"x_max":504,"o":"m 504 991 l 135 0 l 14 0 l 383 991 l 504 991 z "},":":{"ha":372,"x_min":100,"x_max":272,"o":"m 100 75 q 106 119 100 101 q 125 148 113 137 q 152 164 136 159 q 186 170 168 170 q 219 164 203 170 q 247 148 235 159 q 265 119 258 137 q 272 75 272 101 q 265 32 272 50 q 247 3 258 14 q 219 -14 235 -9 q 186 -20 203 -20 q 152 -14 168 -20 q 125 3 136 -9 q 106 32 113 14 q 100 75 100 50 m 100 669 q 106 714 100 696 q 125 743 113 732 q 152 759 136 754 q 186 764 168 764 q 219 759 203 764 q 247 743 235 754 q 265 714 258 732 q 272 669 272 696 q 265 627 272 644 q 247 597 258 609 q 219 581 235 586 q 186 575 203 575 q 152 581 168 575 q 125 597 136 586 q 106 627 113 609 q 100 669 100 644 z "},";":{"ha":372,"x_min":43,"x_max":272,"o":"m 245 161 l 256 146 q 233 68 246 109 q 204 -16 220 26 q 171 -99 188 -58 q 136 -179 153 -141 l 43 -179 q 63 -93 53 -138 q 82 -4 73 -48 q 98 83 91 41 q 111 161 106 125 l 245 161 m 100 669 q 106 714 100 696 q 125 743 113 732 q 152 759 136 754 q 186 764 168 764 q 219 759 203 764 q 247 743 235 754 q 265 714 258 732 q 272 669 272 696 q 265 627 272 644 q 247 597 258 609 q 219 581 235 586 q 186 575 203 575 q 152 581 168 575 q 125 597 136 586 q 106 627 113 609 q 100 669 100 644 z "},"<":{"ha":765,"x_min":69,"x_max":696,"o":"m 696 161 l 69 449 l 69 518 l 696 844 l 696 736 l 197 489 l 696 271 l 696 161 z "},"=":{"ha":765,"x_min":69,"x_max":696,"o":"m 69 578 l 69 679 l 696 679 l 696 578 l 69 578 m 69 300 l 69 401 l 696 401 l 696 300 l 69 300 z "},">":{"ha":765,"x_min":69,"x_max":696,"o":"m 69 271 l 568 489 l 69 736 l 69 844 l 696 518 l 696 449 l 69 161 l 69 271 z "},"?":{"ha":591,"x_min":25,"x_max":546,"o":"m 191 281 l 191 306 q 196 376 191 345 q 214 434 201 407 q 250 487 227 461 q 306 542 272 513 q 361 592 338 570 q 399 638 385 615 q 421 689 414 662 q 428 751 428 715 q 418 811 428 784 q 388 857 408 838 q 340 887 369 876 q 273 897 311 897 q 166 880 217 897 q 68 839 115 862 l 25 937 q 144 986 80 966 q 273 1006 208 1006 q 387 988 336 1006 q 473 939 437 971 q 527 859 508 906 q 546 753 546 812 q 537 672 546 707 q 509 606 528 636 q 464 547 491 575 q 400 486 437 518 q 342 433 365 456 q 307 389 320 410 q 290 345 294 368 q 285 293 285 323 l 285 281 l 191 281 m 158 75 q 165 119 158 101 q 183 148 172 137 q 210 164 195 159 q 244 170 226 170 q 278 164 262 170 q 305 148 294 159 q 323 119 317 137 q 330 75 330 101 q 323 32 330 50 q 305 3 317 14 q 278 -14 294 -9 q 244 -20 262 -20 q 210 -14 226 -20 q 183 3 195 -9 q 165 32 172 14 q 158 75 158 50 z "},"@":{"ha":1203,"x_min":74,"x_max":1129,"o":"m 1129 496 q 1123 411 1129 454 q 1104 331 1116 369 q 1072 259 1091 292 q 1027 202 1053 227 q 968 164 1001 178 q 896 150 935 150 q 841 160 865 150 q 798 187 816 170 q 769 226 781 204 q 754 272 758 248 l 751 272 q 721 224 739 247 q 679 185 703 202 q 624 159 654 169 q 558 150 594 150 q 466 169 506 150 q 397 222 425 188 q 355 304 370 256 q 340 411 340 353 q 360 536 340 479 q 418 635 380 593 q 509 699 456 676 q 629 722 563 722 q 690 720 660 722 q 749 712 721 717 q 800 702 777 707 q 839 690 823 696 l 823 408 q 822 384 823 393 q 822 370 822 375 l 822 357 q 829 298 822 321 q 848 261 836 275 q 874 242 859 248 q 904 237 888 237 q 959 258 935 237 q 999 314 983 279 q 1023 397 1015 349 q 1031 497 1031 444 q 1002 668 1031 593 q 921 795 972 743 q 799 873 869 846 q 644 900 728 900 q 442 862 530 900 q 295 757 355 825 q 205 597 236 690 q 175 395 175 505 q 202 213 175 292 q 280 79 229 134 q 409 -3 332 25 q 586 -31 486 -31 q 668 -26 627 -31 q 746 -13 708 -21 q 817 6 783 -5 q 880 28 851 16 l 880 -68 q 749 -109 822 -94 q 587 -123 675 -123 q 371 -89 466 -123 q 209 12 275 -54 q 109 173 143 78 q 74 390 74 269 q 114 628 74 517 q 228 819 154 738 q 408 945 302 899 q 644 991 513 991 q 839 957 750 991 q 992 859 928 923 q 1093 703 1057 795 q 1129 496 1129 611 m 449 408 q 483 278 449 318 q 575 237 517 237 q 639 253 612 237 q 682 296 665 268 q 708 363 699 324 q 720 449 717 402 l 729 621 q 684 630 710 626 q 629 635 658 635 q 545 615 579 635 q 489 564 511 595 q 458 491 468 532 q 449 408 449 450 z "},"{":{"ha":492,"x_min":41,"x_max":457,"o":"m 339 -11 q 347 -64 339 -43 q 371 -97 355 -85 q 408 -113 386 -109 q 457 -118 430 -117 l 457 -220 q 360 -208 405 -219 q 284 -173 316 -197 q 233 -111 252 -149 q 215 -21 215 -74 l 215 205 q 171 304 215 275 q 41 334 126 334 l 41 439 q 171 468 126 439 q 215 567 215 497 l 215 793 q 233 883 215 846 q 284 944 252 920 q 360 980 316 968 q 457 991 405 991 l 457 890 q 408 885 430 890 q 371 869 386 881 q 347 837 355 857 q 339 783 339 816 l 339 558 q 299 445 339 487 q 180 390 258 404 l 180 382 q 299 327 258 368 q 339 214 339 286 l 339 -11 z "},"|":{"ha":765,"x_min":332,"x_max":433,"o":"m 332 1055 l 433 1055 l 433 -334 l 332 -334 l 332 1055 z "},"}":{"ha":492,"x_min":35,"x_max":450,"o":"m 153 214 q 193 327 153 286 q 311 382 233 368 l 311 390 q 193 445 233 404 q 153 558 153 487 l 153 783 q 144 837 153 816 q 121 869 136 857 q 84 885 106 881 q 35 890 62 890 l 35 991 q 131 980 87 991 q 208 944 176 968 q 258 883 240 920 q 277 793 277 846 l 277 567 q 288 507 277 532 q 321 468 299 483 q 376 446 343 452 q 450 439 408 439 l 450 334 q 321 304 366 334 q 277 205 277 275 l 277 -21 q 258 -111 277 -74 q 208 -173 240 -149 q 131 -208 176 -197 q 35 -220 87 -219 l 35 -118 q 84 -113 62 -117 q 121 -97 106 -109 q 144 -64 136 -85 q 153 -11 153 -43 l 153 214 z "},"~":{"ha":765,"x_min":69,"x_max":696,"o":"m 359 441 q 316 460 334 452 q 282 472 297 467 q 253 478 267 476 q 224 479 239 479 q 184 473 205 479 q 144 455 164 467 q 105 429 124 444 q 69 397 86 414 l 69 507 q 237 581 137 581 q 274 579 257 581 q 310 573 291 577 q 351 560 328 568 q 406 538 374 551 q 449 519 431 527 q 484 508 468 512 q 513 502 500 503 q 542 500 527 500 q 581 506 561 500 q 622 524 602 513 q 661 550 642 535 q 696 582 680 565 l 696 472 q 528 399 629 399 q 491 400 508 399 q 455 407 474 402 q 414 419 437 411 q 359 441 391 428 z "},"​":{"ha":0,"x_min":0,"x_max":0,"o":""},"«":{"ha":676,"x_min":56,"x_max":621,"o":"m 56 375 l 265 656 l 345 603 l 183 367 l 345 131 l 265 78 l 56 357 l 56 375 m 332 375 l 542 656 l 621 603 l 460 367 l 621 131 l 542 78 l 332 357 l 332 375 z "},"­":{"ha":447,"x_min":56,"x_max":392,"o":"m 56 315 l 56 429 l 392 429 l 392 315 l 56 315 z "},"»":{"ha":676,"x_min":57,"x_max":623,"o":"m 623 357 l 412 78 l 334 131 l 494 367 l 334 603 l 412 656 l 623 375 l 623 357 m 346 357 l 136 78 l 57 131 l 218 367 l 57 603 l 136 656 l 346 375 l 346 357 z "},"ក":{"ha":1051,"x_min":136,"x_max":915,"o":"m 729 509 q 691 585 729 559 q 576 610 652 610 l 475 610 q 360 585 399 610 q 322 509 322 559 l 322 0 l 203 0 l 203 509 q 271 636 203 593 q 475 678 339 678 l 576 678 q 780 636 712 678 q 848 509 848 593 l 848 0 l 729 0 l 729 509 m 522 746 l 500 746 l 332 852 l 241 805 l 323 747 q 264 708 288 708 l 263 708 q 218 726 241 708 l 136 790 l 136 828 l 374 949 l 401 949 l 546 858 l 650 949 l 677 949 l 812 867 q 876 848 842 848 l 915 848 q 829 746 876 746 q 736 774 782 746 l 629 841 l 522 746 z "},"ខ":{"ha":1051,"x_min":203,"x_max":848,"o":"m 322 611 q 347 619 339 611 q 356 644 356 628 q 347 657 356 652 q 322 661 339 661 l 322 611 m 729 678 l 729 780 q 691 856 729 831 q 576 882 652 882 l 475 882 q 360 856 399 882 q 322 780 322 831 l 322 729 q 399 708 373 729 q 424 644 424 686 q 399 568 424 593 q 322 543 373 543 q 233 559 263 543 q 203 610 203 576 l 203 780 q 271 907 203 865 q 475 949 339 949 l 576 949 q 780 907 712 949 q 848 780 848 865 l 848 678 q 818 589 848 627 q 729 521 788 552 l 322 308 l 322 170 q 360 94 322 119 q 475 68 399 68 l 576 68 q 691 123 652 68 q 729 271 729 179 l 729 348 l 848 412 l 848 271 q 780 71 848 142 q 576 0 712 0 l 475 0 q 271 42 339 0 q 203 170 203 85 l 203 322 l 610 535 q 699 601 670 566 q 729 678 729 635 z "},"គ":{"ha":1051,"x_min":136,"x_max":915,"o":"m 522 747 l 500 747 l 332 852 l 241 805 l 323 747 q 264 708 288 708 l 263 708 q 218 726 241 708 l 136 790 l 136 828 l 374 949 l 401 949 l 546 858 l 650 949 l 677 949 l 812 867 q 876 848 842 848 l 915 848 q 829 747 876 747 q 736 774 781 747 l 629 841 l 522 747 m 322 174 l 365 230 q 441 301 407 285 q 509 317 475 317 q 568 293 543 317 q 584 262 584 279 q 576 237 584 250 q 517 205 559 205 l 513 205 q 449 191 473 205 q 399 140 424 175 l 322 35 l 322 0 l 203 0 l 203 509 q 271 636 203 593 q 475 678 339 678 l 576 678 q 780 636 712 678 q 848 509 848 593 l 848 0 l 729 0 l 729 509 q 691 585 729 559 q 576 610 652 610 l 475 610 q 360 585 399 610 q 322 509 322 559 l 322 174 z "},"ឃ":{"ha":1577,"x_min":68,"x_max":1492,"o":"m 203 847 q 153 781 170 808 q 136 739 136 754 q 153 706 136 715 q 203 695 170 695 l 203 847 m 1085 0 l 1017 0 q 867 10 926 0 q 783 40 808 20 q 702 10 758 20 q 559 0 646 0 l 492 0 q 275 42 347 0 q 203 170 203 85 l 203 627 q 102 654 136 627 q 68 738 68 680 q 85 800 68 766 q 136 873 102 834 l 203 949 l 322 949 l 322 170 q 365 94 322 119 q 492 68 407 68 l 559 68 q 686 94 644 68 q 729 170 729 119 l 729 628 l 610 703 l 610 747 l 768 949 l 863 891 q 932 865 904 865 l 966 865 q 876 763 910 763 q 806 786 843 763 l 753 819 l 687 735 l 848 633 l 848 170 q 890 94 848 119 q 1017 68 932 68 l 1085 68 q 1213 94 1170 68 q 1255 170 1255 119 l 1255 628 l 1136 703 l 1136 747 l 1294 949 l 1388 891 q 1458 865 1430 865 l 1492 865 q 1402 763 1436 763 q 1332 786 1369 763 l 1278 819 l 1213 735 l 1373 633 l 1373 170 q 1301 42 1373 85 q 1085 0 1229 0 z "},"ង":{"ha":1051,"x_min":85,"x_max":848,"o":"m 576 834 q 586 807 576 817 q 618 797 597 797 q 649 807 639 797 q 659 836 659 817 q 649 863 659 853 q 618 873 639 872 q 586 863 597 872 q 576 834 576 852 m 203 509 q 165 460 178 481 q 153 424 153 438 q 165 411 153 415 q 203 407 178 407 l 203 509 m 848 0 l 729 0 l 526 131 l 322 0 l 203 0 l 203 339 q 115 360 144 339 q 85 423 85 381 q 101 484 85 452 q 151 552 118 515 l 203 610 l 322 610 l 322 81 l 526 212 l 729 81 l 729 664 l 588 729 l 407 729 q 254 756 305 729 q 203 848 203 783 l 203 950 q 186 987 203 975 q 136 1000 170 1000 q 157 1064 136 1043 q 220 1085 178 1085 q 297 1051 272 1085 q 323 950 323 1017 l 323 848 q 344 809 323 821 q 407 797 365 797 l 503 797 q 492 835 492 810 q 524 920 492 891 q 618 949 555 949 q 711 920 680 949 q 743 833 743 891 q 703 757 743 796 l 848 704 l 848 0 z "},"ច":{"ha":1051,"x_min":136,"x_max":915,"o":"m 729 526 q 691 477 704 498 q 678 441 678 456 q 691 428 678 433 q 729 424 704 424 l 729 526 m 848 170 q 784 42 848 85 q 593 0 720 0 l 458 0 q 267 42 331 0 q 203 170 203 85 l 203 712 l 136 790 l 136 828 l 374 949 l 401 949 l 546 858 l 650 949 l 677 949 l 812 867 q 876 848 842 848 l 915 848 q 829 746 876 746 q 736 774 782 746 l 629 841 l 522 746 l 500 746 l 332 852 l 241 805 l 322 712 l 322 170 q 356 94 322 119 q 458 68 390 68 l 593 68 q 695 94 661 68 q 729 170 729 119 l 729 356 q 640 377 670 356 q 610 440 610 398 q 627 500 610 468 q 676 569 643 533 l 729 627 l 848 627 l 848 170 z "},"ឆ":{"ha":1051,"x_min":102,"x_max":915,"o":"m 170 186 q 178 132 170 155 q 203 93 186 109 l 203 237 q 178 224 186 237 q 170 186 170 212 m 729 526 q 691 477 704 498 q 678 441 678 456 q 691 428 678 433 q 729 424 704 424 l 729 526 m 203 712 l 136 790 l 136 828 l 374 949 l 401 949 l 546 858 l 650 949 l 677 949 l 812 867 q 876 848 842 848 l 915 848 q 829 746 876 746 q 736 774 782 746 l 629 841 l 522 746 l 500 746 l 332 852 l 241 805 l 322 712 l 322 305 l 373 305 q 500 269 458 305 q 543 158 543 232 q 568 90 543 113 q 644 68 593 68 q 708 94 686 68 q 729 170 729 119 l 729 356 q 640 377 670 356 q 610 440 610 398 q 627 500 610 468 q 676 569 643 533 l 729 627 l 848 627 l 848 170 q 797 42 848 85 q 644 0 746 0 q 517 39 559 0 q 475 158 475 79 q 449 218 475 198 q 373 237 424 237 l 322 237 l 322 0 l 203 0 l 153 47 q 115 106 127 72 q 102 186 102 141 q 127 275 102 245 q 203 305 153 305 l 203 712 z "},"ជ":{"ha":1051,"x_min":136,"x_max":848,"o":"m 848 0 l 729 0 l 526 131 l 322 0 l 203 0 l 203 704 l 136 757 l 136 808 l 359 949 l 397 949 l 579 797 l 610 797 q 700 821 669 797 q 730 882 730 844 q 708 958 730 932 q 644 983 687 983 q 665 1035 644 1018 q 726 1051 686 1051 q 817 1009 787 1051 q 848 882 848 967 q 785 768 848 807 q 610 729 723 729 l 475 729 l 330 851 l 217 779 l 322 696 l 322 81 l 526 212 l 729 81 l 729 627 l 848 627 l 848 0 z "},"ឈ":{"ha":2102,"x_min":203,"x_max":2018,"o":"m 322 96 l 367 140 q 397 180 387 160 q 407 220 407 200 q 394 245 407 237 q 356 254 381 254 l 322 254 l 322 96 m 1611 0 l 1543 0 q 1393 10 1451 0 q 1309 40 1334 20 q 1227 10 1284 20 q 1085 0 1171 0 l 1017 0 q 801 42 873 0 q 729 170 729 85 l 729 727 l 465 847 l 322 783 l 322 322 l 356 322 q 445 297 415 322 q 475 220 475 271 q 461 155 475 186 q 420 97 448 123 l 322 0 l 203 0 l 203 804 l 526 949 l 848 804 l 848 170 q 890 94 848 119 q 1017 68 932 68 l 1085 68 q 1212 94 1170 68 q 1255 170 1255 119 l 1255 628 l 1136 703 l 1136 747 l 1294 949 l 1388 891 q 1458 865 1430 865 l 1492 865 q 1402 763 1436 763 q 1332 786 1369 763 l 1278 819 l 1213 735 l 1373 633 l 1373 170 q 1415 94 1373 119 q 1543 68 1458 68 l 1611 68 q 1738 94 1695 68 q 1780 170 1780 119 l 1780 628 l 1662 703 l 1662 747 l 1820 949 l 1914 891 q 1984 865 1955 865 l 2018 865 q 1927 763 1961 763 q 1858 786 1894 763 l 1804 819 l 1738 735 l 1899 633 l 1899 170 q 1827 42 1899 85 q 1611 0 1754 0 z "},"ញ":{"ha":1577,"x_min":203,"x_max":1373,"o":"m 1373 -203 q 1313 -356 1373 -305 q 1131 -407 1253 -407 q 930 -381 1017 -407 q 782 -305 842 -356 q 617 -203 701 -237 q 446 -170 533 -170 q 315 -184 375 -170 q 203 -231 254 -200 l 203 -197 q 229 -148 203 -163 q 315 -117 254 -132 q 446 -102 375 -102 q 696 -140 583 -102 q 901 -254 810 -178 q 1009 -318 951 -297 q 1131 -339 1067 -339 q 1224 -305 1193 -339 q 1255 -203 1255 -271 q 1234 -153 1255 -170 q 1171 -136 1213 -136 q 1192 -85 1171 -102 q 1255 -68 1213 -68 q 1343 -102 1314 -68 q 1373 -203 1373 -136 m 322 96 l 367 140 q 397 180 387 160 q 407 220 407 200 q 394 245 407 237 q 356 254 381 254 l 322 254 l 322 96 m 1373 0 l 1255 0 l 1255 700 l 1000 842 l 848 757 l 848 0 l 729 0 l 729 783 l 649 854 l 526 734 l 403 854 l 322 784 l 322 322 l 356 322 q 445 297 415 322 q 475 220 475 271 q 461 155 475 186 q 420 97 448 123 l 322 0 l 203 0 l 203 769 l 405 949 l 526 831 l 647 949 l 802 808 l 1051 949 l 1373 768 l 1373 0 z "},"ដ":{"ha":1051,"x_min":203,"x_max":848,"o":"m 559 797 q 686 820 644 797 q 729 890 729 844 q 708 960 729 937 q 644 983 686 983 q 661 1034 644 1017 q 712 1051 678 1051 q 814 1011 780 1051 q 848 890 848 970 q 776 769 848 810 q 559 729 704 729 l 492 729 q 275 759 347 729 q 203 848 203 788 q 237 924 203 899 q 338 949 271 949 q 403 937 381 949 q 424 899 424 924 q 407 861 424 873 q 357 848 391 848 q 340 882 357 882 q 322 848 322 882 q 365 810 322 822 q 492 797 407 797 l 559 797 m 848 0 l 729 0 l 526 131 l 322 0 l 203 0 l 203 627 l 322 627 l 322 81 l 526 212 l 729 81 l 729 627 l 848 627 l 848 0 z "},"ឋ":{"ha":1051,"x_min":68,"x_max":949,"o":"m 203 847 q 153 781 170 808 q 136 739 136 754 q 153 706 136 715 q 203 695 170 695 l 203 847 m 559 0 l 492 0 q 275 42 347 0 q 203 170 203 85 l 203 627 q 102 654 136 627 q 68 738 68 680 q 85 800 68 766 q 136 873 102 834 l 203 949 l 322 949 l 322 170 q 365 94 322 119 q 492 68 407 68 l 559 68 q 686 94 644 68 q 729 170 729 119 l 729 628 l 610 703 l 610 748 l 715 949 l 773 916 q 857 882 833 882 q 876 895 869 882 q 882 932 882 907 q 856 996 882 975 q 780 1017 831 1017 q 797 1068 780 1051 q 848 1085 814 1085 q 924 1047 899 1085 q 949 932 949 1009 q 924 806 949 848 q 849 763 899 763 q 793 775 826 763 q 718 811 761 787 l 681 739 l 848 633 l 848 170 q 776 42 848 85 q 559 0 704 0 z "},"ឌ":{"ha":1051,"x_min":203,"x_max":848,"o":"m 322 611 q 347 619 339 611 q 356 644 356 628 q 347 657 356 652 q 322 661 339 661 l 322 611 m 394 68 l 730 260 l 730 390 l 848 390 l 848 84 q 818 -4 848 25 q 730 -34 789 -34 q 666 -13 687 -34 q 644 51 644 8 q 708 60 687 51 q 730 85 730 68 l 730 182 l 411 1 l 391 1 q 250 52 297 1 q 203 203 203 102 l 203 319 l 692 562 q 729 674 729 581 l 729 783 l 649 854 l 526 734 l 403 854 l 322 784 l 322 729 q 399 708 373 729 q 424 644 424 686 q 399 568 424 593 q 322 543 373 543 q 233 559 263 543 q 203 610 203 576 l 203 769 l 405 949 l 526 831 l 647 949 l 848 769 l 848 674 q 742 511 848 566 l 322 302 l 322 202 q 340 102 322 136 q 394 68 358 68 z "},"ឍ":{"ha":1577,"x_min":203,"x_max":1492,"o":"m 322 96 l 367 140 q 397 180 387 160 q 407 220 407 200 q 394 245 407 237 q 356 254 381 254 l 322 254 l 322 96 m 695 186 q 703 132 695 155 q 729 93 712 109 l 729 237 q 703 224 712 237 q 695 186 695 212 m 848 305 l 899 305 q 1026 269 983 305 q 1068 158 1068 232 q 1094 90 1068 113 q 1170 68 1119 68 q 1234 94 1212 68 q 1255 170 1255 119 l 1255 628 l 1136 703 l 1136 747 l 1294 949 l 1388 891 q 1458 865 1430 865 l 1492 865 q 1402 763 1436 763 q 1332 786 1369 763 l 1278 819 l 1213 735 l 1373 633 l 1373 170 q 1322 42 1373 85 q 1170 0 1272 0 q 1042 39 1085 0 q 1000 158 1000 79 q 975 218 1000 198 q 899 237 949 237 l 848 237 l 848 0 l 729 0 l 678 47 q 640 106 653 72 q 627 186 627 141 q 653 275 627 245 q 729 305 678 305 l 729 783 l 649 854 l 526 734 l 403 854 l 322 784 l 322 322 l 356 322 q 445 297 415 322 q 475 220 475 271 q 461 155 475 186 q 420 97 448 123 l 322 0 l 203 0 l 203 769 l 405 949 l 526 831 l 647 949 l 848 766 l 848 305 z "},"ណ":{"ha":2102,"x_min":203,"x_max":1899,"o":"m 322 96 l 367 140 q 397 180 387 160 q 407 220 407 200 q 394 245 407 237 q 356 254 381 254 l 322 254 l 322 96 m 1780 0 l 1780 727 l 1516 847 l 1373 783 l 1373 0 l 1255 0 l 1051 131 l 848 0 l 729 0 l 729 727 l 465 847 l 322 783 l 322 322 l 356 322 q 445 297 415 322 q 475 220 475 271 q 461 155 475 186 q 420 97 448 123 l 322 0 l 203 0 l 203 804 l 526 949 l 848 804 l 848 81 l 1051 212 l 1255 81 l 1255 804 l 1577 949 l 1899 804 l 1899 0 l 1780 0 z "},"ត":{"ha":1051,"x_min":136,"x_max":915,"o":"m 522 746 l 500 746 l 332 852 l 241 805 l 323 747 q 264 708 288 708 l 263 708 q 218 726 241 708 l 136 790 l 136 828 l 374 949 l 401 949 l 546 858 l 650 949 l 677 949 l 812 867 q 876 848 842 848 l 915 848 q 829 746 876 746 q 736 774 782 746 l 629 841 l 522 746 m 322 96 l 367 140 q 397 180 387 160 q 407 220 407 200 q 394 245 407 237 q 356 254 381 254 l 322 254 l 322 96 m 729 509 q 691 585 729 559 q 576 610 652 610 l 475 610 q 360 585 399 610 q 322 509 322 559 l 322 322 l 356 322 q 445 297 415 322 q 475 220 475 271 q 461 155 475 186 q 420 97 448 123 l 322 0 l 203 0 l 203 509 q 271 636 203 593 q 475 678 339 678 l 576 678 q 780 636 712 678 q 848 509 848 593 l 848 0 l 729 0 l 729 509 z "},"ថ":{"ha":1051,"x_min":136,"x_max":848,"o":"m 729 526 q 691 477 704 498 q 678 441 678 456 q 691 428 678 433 q 729 424 704 424 l 729 526 m 848 170 q 784 42 848 85 q 593 0 720 0 l 458 0 q 267 42 331 0 q 203 170 203 85 l 203 704 l 136 757 l 136 808 l 359 949 l 397 949 l 579 797 l 610 797 q 700 821 669 797 q 730 882 730 844 q 708 958 730 932 q 644 983 687 983 q 665 1035 644 1018 q 726 1051 686 1051 q 817 1009 787 1051 q 848 882 848 967 q 785 768 848 807 q 610 729 723 729 l 475 729 l 330 851 l 217 779 l 322 696 l 322 170 q 356 94 322 119 q 458 68 390 68 l 593 68 q 695 94 661 68 q 729 170 729 119 l 729 356 q 640 377 670 356 q 610 440 610 398 q 627 500 610 468 q 676 569 643 533 l 729 627 l 848 627 l 848 170 z "},"ទ":{"ha":1051,"x_min":203,"x_max":848,"o":"m 727 475 q 686 435 686 475 l 727 435 q 780 455 780 435 q 727 475 780 475 m 730 751 q 679 849 730 817 q 526 882 627 882 q 373 849 424 882 q 322 751 322 817 l 322 593 q 373 474 322 514 q 526 435 425 435 l 568 435 q 608 516 568 489 q 727 543 648 543 q 817 521 787 543 q 848 456 848 499 q 817 389 848 411 q 727 367 787 367 l 686 367 l 686 205 q 642 51 686 102 q 509 0 597 0 q 369 30 416 0 q 322 119 322 59 l 322 204 q 272 238 322 238 q 294 289 272 272 q 363 306 317 306 q 422 280 402 306 q 441 204 441 255 l 441 119 q 458 81 441 94 q 509 68 475 68 q 553 102 538 68 q 568 204 568 136 l 568 367 l 526 367 q 284 423 365 367 q 203 593 203 480 l 203 751 q 284 900 203 850 q 526 949 365 949 q 767 900 686 949 q 848 751 848 850 q 707 644 848 644 q 611 695 611 644 q 678 746 611 746 q 704 713 678 713 q 730 751 730 713 z "},"ធ":{"ha":1051,"x_min":136,"x_max":915,"o":"m 729 526 q 691 477 704 498 q 678 441 678 456 q 691 428 678 433 q 729 424 704 424 l 729 526 m 848 0 l 729 0 l 526 131 l 322 0 l 203 0 l 203 712 l 136 790 l 136 828 l 374 949 l 401 949 l 546 858 l 650 949 l 677 949 l 812 867 q 876 848 842 848 l 915 848 q 829 746 876 746 q 736 774 782 746 l 629 841 l 522 746 l 500 746 l 332 852 l 241 805 l 322 712 l 322 81 l 526 212 l 729 81 l 729 356 q 640 377 670 356 q 610 440 610 398 q 627 500 610 468 q 676 569 643 533 l 729 627 l 848 627 l 848 0 z "},"ន":{"ha":1051,"x_min":203,"x_max":848,"o":"m 729 695 q 691 691 704 695 q 678 678 678 686 q 691 640 678 652 q 729 627 704 627 l 729 695 m 203 791 q 284 910 203 870 q 526 949 365 949 q 767 910 686 949 q 848 791 848 870 l 848 627 q 818 576 848 593 q 729 559 788 559 q 640 589 670 559 q 610 678 610 618 q 640 742 610 720 q 729 763 670 763 l 729 791 q 678 859 729 837 q 526 882 627 882 q 373 859 424 882 q 322 791 322 837 l 322 633 q 373 548 322 566 l 848 385 l 848 158 q 798 39 848 79 q 646 0 747 0 q 537 26 586 0 q 450 106 488 53 q 395 154 427 138 q 322 170 363 170 l 322 0 l 203 0 l 203 395 l 322 395 l 322 237 q 429 216 383 237 q 505 153 475 195 q 571 90 536 111 q 646 68 606 68 q 709 91 688 68 q 730 158 730 113 l 730 355 l 355 483 q 241 547 279 509 q 203 633 203 584 l 203 791 z "},"ប":{"ha":1051,"x_min":85,"x_max":966,"o":"m 559 0 l 492 0 q 275 42 347 0 q 203 170 203 85 l 203 628 l 85 703 l 85 747 l 243 949 l 337 891 q 407 865 378 865 l 441 865 q 351 763 385 763 q 281 786 317 763 l 227 819 l 161 735 l 322 633 l 322 170 q 364 94 322 119 q 492 68 407 68 l 559 68 q 687 94 644 68 q 729 170 729 119 l 729 628 l 610 703 l 610 747 l 768 949 l 863 891 q 932 865 904 865 l 966 865 q 876 763 910 763 q 806 786 843 763 l 753 819 l 687 735 l 848 633 l 848 170 q 776 42 848 85 q 559 0 703 0 z "},"ផ":{"ha":1051,"x_min":136,"x_max":848,"o":"m 729 526 q 691 477 704 498 q 678 441 678 456 q 691 428 678 433 q 729 424 704 424 l 729 526 m 848 0 l 729 0 l 526 131 l 322 0 l 203 0 l 203 704 l 136 757 l 136 808 l 359 949 l 397 949 l 579 797 l 610 797 q 700 821 669 797 q 730 882 730 844 q 708 958 730 932 q 644 983 687 983 q 665 1035 644 1018 q 726 1051 686 1051 q 817 1009 787 1051 q 848 882 848 967 q 785 768 848 807 q 610 729 723 729 l 475 729 l 330 851 l 217 779 l 322 696 l 322 81 l 526 212 l 729 81 l 729 356 q 640 377 670 356 q 610 440 610 398 q 627 500 610 468 q 676 569 643 533 l 729 627 l 848 627 l 848 0 z "},"ព":{"ha":1051,"x_min":203,"x_max":848,"o":"m 322 96 l 367 140 q 397 180 387 160 q 407 220 407 200 q 394 245 407 237 q 356 254 381 254 l 322 254 l 322 96 m 848 0 l 729 0 l 729 783 l 649 854 l 526 734 l 403 854 l 322 784 l 322 322 l 356 322 q 445 297 415 322 q 475 220 475 271 q 461 155 475 186 q 420 97 448 123 l 322 0 l 203 0 l 203 769 l 405 949 l 526 831 l 647 949 l 848 766 l 848 0 z "},"ភ":{"ha":1051,"x_min":68,"x_max":915,"o":"m 522 746 l 500 746 l 332 852 l 241 805 l 323 747 q 264 708 288 708 l 263 708 q 218 726 241 708 l 136 790 l 136 828 l 374 949 l 401 949 l 546 858 l 650 949 l 677 949 l 812 867 q 876 848 842 848 l 915 848 q 829 746 876 746 q 736 774 782 746 l 629 841 l 522 746 m 203 254 l 170 254 q 144 245 153 254 q 136 220 136 237 q 144 184 136 203 q 172 144 153 165 l 203 106 l 203 254 m 729 509 q 691 585 729 559 q 576 610 652 610 l 475 610 q 360 585 399 610 q 322 509 322 559 l 322 0 l 203 0 l 122 97 q 81 160 95 129 q 68 220 68 191 q 94 297 68 271 q 170 322 119 322 l 203 322 l 203 509 q 271 636 203 593 q 475 678 339 678 l 576 678 q 780 636 712 678 q 848 509 848 593 l 848 0 l 729 0 l 729 509 z "},"ម":{"ha":1051,"x_min":85,"x_max":966,"o":"m 559 0 l 492 0 q 275 42 347 0 q 203 170 203 85 l 203 628 l 85 703 l 85 747 l 243 949 l 337 891 q 407 865 378 865 l 441 865 q 351 763 385 763 q 281 786 317 763 l 227 819 l 161 735 l 322 633 l 322 475 l 729 475 l 729 628 l 610 703 l 610 747 l 768 949 l 863 891 q 932 865 904 865 l 966 865 q 876 763 910 763 q 806 786 843 763 l 753 819 l 687 735 l 848 633 l 848 170 q 776 42 848 85 q 559 0 703 0 m 322 407 l 322 170 q 364 94 322 119 q 492 68 407 68 l 559 68 q 687 94 644 68 q 729 170 729 119 l 729 407 l 322 407 z "},"យ":{"ha":1577,"x_min":203,"x_max":1492,"o":"m 322 695 q 373 706 356 695 q 390 739 390 715 q 373 781 390 754 q 322 847 356 808 l 322 695 m 1085 0 l 1017 0 q 867 10 926 0 q 783 40 808 20 q 702 10 758 20 q 559 0 646 0 l 492 0 q 275 42 347 0 q 203 170 203 85 l 203 949 l 322 949 l 390 873 q 441 800 424 834 q 458 738 458 766 q 424 654 458 680 q 322 627 390 627 l 322 170 q 365 94 322 119 q 492 68 407 68 l 559 68 q 686 94 644 68 q 729 170 729 119 l 729 628 l 610 703 l 610 747 l 768 949 l 863 891 q 932 865 904 865 l 966 865 q 876 763 910 763 q 806 786 843 763 l 753 819 l 687 735 l 848 633 l 848 170 q 890 94 848 119 q 1017 68 932 68 l 1085 68 q 1213 94 1170 68 q 1255 170 1255 119 l 1255 628 l 1136 703 l 1136 747 l 1294 949 l 1388 891 q 1458 865 1430 865 l 1492 865 q 1402 763 1436 763 q 1332 786 1369 763 l 1278 819 l 1213 735 l 1373 633 l 1373 170 q 1301 42 1373 85 q 1085 0 1229 0 z "},"រ":{"ha":526,"x_min":85,"x_max":441,"o":"m 203 254 l 186 254 q 161 245 170 254 q 153 220 153 237 q 165 180 153 206 q 203 118 178 155 l 203 254 m 322 0 l 203 0 l 144 85 q 100 162 115 128 q 85 220 85 195 q 111 297 85 271 q 186 322 136 322 l 203 322 l 203 628 l 85 703 l 85 747 l 243 949 l 337 891 q 407 865 378 865 l 441 865 q 351 763 385 763 q 281 786 317 763 l 227 819 l 161 735 l 322 633 l 322 0 z "},"ល":{"ha":1577,"x_min":203,"x_max":1492,"o":"m 322 96 l 367 140 q 397 180 387 160 q 407 220 407 200 q 394 245 407 237 q 356 254 381 254 l 322 254 l 322 96 m 1085 0 l 1017 0 q 801 42 873 0 q 729 170 729 85 l 729 727 l 465 847 l 322 783 l 322 322 l 356 322 q 445 297 415 322 q 475 220 475 271 q 461 155 475 186 q 420 97 448 123 l 322 0 l 203 0 l 203 804 l 526 949 l 848 804 l 848 170 q 890 94 848 119 q 1017 68 932 68 l 1085 68 q 1212 94 1170 68 q 1255 170 1255 119 l 1255 628 l 1136 703 l 1136 747 l 1294 949 l 1388 891 q 1458 865 1430 865 l 1492 865 q 1402 763 1436 763 q 1332 786 1369 763 l 1278 819 l 1213 735 l 1373 633 l 1373 170 q 1301 42 1373 85 q 1085 0 1229 0 z "},"វ":{"ha":526,"x_min":85,"x_max":424,"o":"m 203 254 l 186 254 q 161 245 170 254 q 153 220 153 237 q 165 180 153 206 q 203 118 178 155 l 203 254 m 322 0 l 203 0 l 144 85 q 100 162 115 128 q 85 220 85 195 q 111 297 85 271 q 186 322 136 322 l 203 322 l 203 628 l 85 703 l 85 748 l 189 949 l 248 916 q 332 882 307 882 q 350 895 344 882 q 356 932 356 907 q 330 996 356 975 q 254 1017 305 1017 q 271 1068 254 1051 q 322 1085 288 1085 q 398 1047 373 1085 q 424 932 424 1009 q 399 806 424 848 q 323 763 374 763 q 268 775 300 763 q 193 811 235 787 l 155 739 l 322 633 l 322 0 z "},"ឝ":{"ha":1051,"x_min":136,"x_max":949,"o":"m 522 747 l 500 747 l 332 852 l 241 805 l 323 747 q 264 708 288 708 l 263 708 q 218 726 241 708 l 136 790 l 136 828 l 374 949 l 401 949 l 546 858 l 650 949 l 677 949 l 812 867 q 876 848 842 848 l 915 848 q 829 747 876 747 q 736 774 781 747 l 629 841 l 522 747 m 322 174 l 365 230 q 441 301 407 285 q 509 317 475 317 q 568 293 543 317 q 584 262 584 279 q 576 237 584 250 q 517 205 559 205 l 513 205 q 449 191 473 205 q 399 140 424 175 l 322 35 l 322 0 l 203 0 l 203 509 q 271 636 203 593 q 475 678 339 678 l 576 678 q 780 636 712 678 q 848 509 848 593 l 848 305 l 882 305 q 949 339 932 305 q 932 263 949 288 q 882 237 916 237 l 848 237 l 848 0 l 729 0 l 729 237 l 627 237 l 627 305 l 729 305 l 729 509 q 691 585 729 559 q 576 610 652 610 l 475 610 q 360 585 399 610 q 322 509 322 559 l 322 174 z "},"ឞ":{"ha":1051,"x_min":85,"x_max":966,"o":"m 559 0 l 492 0 q 275 42 347 0 q 203 170 203 85 l 203 628 l 85 703 l 85 747 l 243 949 l 337 891 q 407 865 378 865 l 441 865 q 351 763 385 763 q 281 786 317 763 l 227 819 l 161 735 l 322 633 l 322 170 q 364 94 322 119 q 492 68 407 68 l 559 68 q 687 94 644 68 q 729 170 729 119 l 729 407 l 607 407 l 607 475 l 729 475 l 729 628 l 610 703 l 610 747 l 768 949 l 863 891 q 932 865 904 865 l 966 865 q 876 763 910 763 q 806 786 843 763 l 753 819 l 687 735 l 848 633 l 848 475 l 882 475 q 949 509 932 475 q 932 433 949 458 q 882 407 916 407 l 848 407 l 848 170 q 776 42 848 85 q 559 0 703 0 z "},"ស":{"ha":1577,"x_min":203,"x_max":1492,"o":"m 319 776 l 474 678 l 576 678 q 780 636 712 678 q 848 509 848 593 l 848 170 q 890 94 848 119 q 1017 68 932 68 l 1085 68 q 1212 94 1170 68 q 1255 170 1255 119 l 1255 628 l 1136 703 l 1136 747 l 1294 949 l 1388 891 q 1458 865 1430 865 l 1492 865 q 1402 763 1436 763 q 1332 786 1369 763 l 1278 819 l 1213 735 l 1373 633 l 1373 170 q 1301 42 1373 85 q 1085 0 1229 0 l 1017 0 q 801 42 873 0 q 729 170 729 85 l 729 509 q 691 585 729 559 q 576 610 652 610 l 475 610 q 360 585 399 610 q 322 509 322 559 l 322 322 l 356 322 q 445 297 415 322 q 475 220 475 271 q 461 155 475 186 q 420 97 448 123 l 322 0 l 203 0 l 203 509 q 271 636 203 593 q 361 669 307 658 l 237 746 l 237 795 l 413 949 l 440 949 l 575 867 q 639 848 605 848 l 677 848 q 592 746 639 746 q 498 774 545 746 l 391 841 l 319 776 m 322 96 l 367 140 q 397 180 387 160 q 407 220 407 200 q 394 245 407 237 q 356 254 381 254 l 322 254 l 322 96 z "},"ហ":{"ha":1577,"x_min":85,"x_max":1373,"o":"m 559 0 l 492 0 q 275 42 347 0 q 203 170 203 85 l 203 628 l 85 703 l 85 747 l 243 949 l 337 891 q 407 865 378 865 l 441 865 q 351 763 385 763 q 281 786 317 763 l 227 819 l 161 735 l 322 633 l 322 170 q 364 94 322 119 q 492 68 407 68 l 559 68 q 687 94 644 68 q 729 170 729 119 l 729 628 l 610 703 l 610 747 l 921 949 l 1373 804 l 1373 0 l 1255 0 l 1255 717 l 876 839 l 704 726 l 848 633 l 848 170 q 776 42 848 85 q 559 0 703 0 z "},"ឡ":{"ha":1577,"x_min":203,"x_max":1492,"o":"m 727 475 q 686 435 686 475 l 727 435 q 780 455 780 435 q 727 475 780 475 m 730 751 q 679 849 730 817 q 526 882 627 882 q 373 849 424 882 q 322 751 322 817 l 322 593 q 373 474 322 514 q 526 435 425 435 l 568 435 q 608 516 568 489 q 727 543 648 543 q 817 521 787 543 q 848 456 848 499 q 817 389 848 411 q 727 367 787 367 l 686 367 l 686 205 q 642 51 686 102 q 509 0 597 0 q 369 30 416 0 q 322 119 322 59 l 322 204 q 272 238 322 238 q 294 289 272 272 q 363 306 317 306 q 422 280 402 306 q 441 204 441 255 l 441 119 q 458 81 441 94 q 509 68 475 68 q 553 102 538 68 q 568 204 568 136 l 568 367 l 526 367 q 284 423 365 367 q 203 593 203 480 l 203 751 q 284 900 203 850 q 526 949 365 949 q 767 900 686 949 q 848 751 848 850 q 707 644 848 644 q 611 695 611 644 q 678 746 611 746 q 704 713 678 713 q 730 751 730 713 m 1373 -509 l 1255 -509 l 1051 -378 l 848 -509 l 729 -509 l 729 -271 l 724 -271 q 653 -259 677 -271 q 627 -221 627 -246 q 640 -170 627 -196 q 678 -119 652 -145 l 729 -68 l 848 -68 l 848 -428 l 1051 -297 l 1255 -428 l 1255 628 l 1136 703 l 1136 747 l 1294 949 l 1388 891 q 1458 865 1430 865 l 1492 865 q 1402 763 1436 763 q 1332 786 1369 763 l 1278 819 l 1213 735 l 1373 633 l 1373 -509 m 729 -204 l 730 -153 q 696 -195 696 -186 q 729 -204 696 -204 z "},"អ":{"ha":1051,"x_min":85,"x_max":966,"o":"m 203 254 l 186 254 q 161 245 170 254 q 153 220 153 237 q 165 180 153 206 q 203 118 178 155 l 203 254 m 729 254 l 712 254 q 686 245 695 254 q 678 220 678 237 q 691 180 678 206 q 729 118 703 155 l 729 254 m 203 628 l 85 703 l 85 747 l 243 949 l 337 891 q 407 865 378 865 l 441 865 q 351 763 385 763 q 281 786 317 763 l 227 819 l 161 735 l 322 633 l 322 475 l 729 475 l 729 628 l 610 703 l 610 747 l 768 949 l 863 891 q 932 865 904 865 l 966 865 q 876 763 910 763 q 806 786 843 763 l 753 819 l 687 735 l 848 633 l 848 0 l 729 0 l 669 85 q 625 162 640 128 q 610 220 610 195 q 636 297 610 271 q 712 322 661 322 l 729 322 l 729 407 l 322 407 l 322 0 l 203 0 l 144 85 q 100 162 115 128 q 85 220 85 195 q 111 297 85 271 q 186 322 136 322 l 203 322 l 203 628 z "},"ឣ":{"ha":1051,"x_min":85,"x_max":966,"o":"m 203 254 l 186 254 q 161 245 170 254 q 153 220 153 237 q 165 180 153 206 q 203 118 178 155 l 203 254 m 729 254 l 712 254 q 686 245 695 254 q 678 220 678 237 q 691 180 678 206 q 729 118 703 155 l 729 254 m 203 628 l 85 703 l 85 747 l 243 949 l 337 891 q 407 865 378 865 l 441 865 q 351 763 385 763 q 281 786 317 763 l 227 819 l 161 735 l 322 633 l 322 475 l 729 475 l 729 628 l 610 703 l 610 747 l 768 949 l 863 891 q 932 865 904 865 l 966 865 q 876 763 910 763 q 806 786 843 763 l 753 819 l 687 735 l 848 633 l 848 0 l 729 0 l 669 85 q 625 162 640 128 q 610 220 610 195 q 636 297 610 271 q 712 322 661 322 l 729 322 l 729 407 l 322 407 l 322 0 l 203 0 l 144 85 q 100 162 115 128 q 85 220 85 195 q 111 297 85 271 q 186 322 136 322 l 203 322 l 203 628 z "},"ឤ":{"ha":1577,"x_min":85,"x_max":1373,"o":"m 203 254 l 186 254 q 161 245 170 254 q 153 220 153 237 q 165 180 153 206 q 203 118 178 155 l 203 254 m 729 254 l 712 254 q 686 245 695 254 q 678 220 678 237 q 691 180 678 206 q 729 118 703 155 l 729 254 m 729 628 l 610 703 l 610 747 l 921 949 l 1373 804 l 1373 0 l 1255 0 l 1255 717 l 876 839 l 704 726 l 848 633 l 848 0 l 729 0 l 669 85 q 625 162 640 128 q 610 220 610 195 q 636 297 610 271 q 712 322 661 322 l 729 322 l 729 407 l 322 407 l 322 0 l 203 0 l 144 85 q 100 162 115 128 q 85 220 85 195 q 111 297 85 271 q 186 322 136 322 l 203 322 l 203 628 l 85 703 l 85 747 l 243 949 l 337 891 q 407 865 378 865 l 441 865 q 351 763 385 763 q 281 786 317 763 l 227 819 l 161 735 l 322 633 l 322 475 l 729 475 l 729 628 z "},"ឥ":{"ha":1051,"x_min":136,"x_max":848,"o":"m 252 667 l 136 757 l 136 808 l 359 949 l 397 949 l 579 797 l 610 797 q 700 821 669 797 q 730 882 730 844 q 708 958 730 932 q 644 983 687 983 q 665 1035 644 1018 q 726 1051 686 1051 q 817 1009 787 1051 q 848 882 848 967 q 785 768 848 807 q 610 729 723 729 l 475 729 l 330 851 l 217 779 l 322 695 l 252 667 m 322 96 l 367 140 q 397 180 387 160 q 407 220 407 200 q 394 245 407 237 q 356 254 381 254 l 322 254 l 322 96 m 729 509 q 691 585 729 559 q 576 610 652 610 l 475 610 q 360 585 399 610 q 322 509 322 559 l 322 322 l 356 322 q 445 297 415 322 q 475 220 475 271 q 461 155 475 186 q 420 97 448 123 l 322 0 l 203 0 l 203 509 q 271 636 203 593 q 475 678 339 678 l 576 678 q 780 636 712 678 q 848 509 848 593 l 848 0 l 729 0 l 729 509 z "},"ឦ":{"ha":1577,"x_min":203,"x_max":1475,"o":"m 322 96 l 367 140 q 397 180 387 160 q 407 220 407 200 q 394 245 407 237 q 356 254 381 254 l 322 254 l 322 96 m 729 0 l 729 727 l 465 847 l 322 783 l 322 322 l 356 322 q 445 297 415 322 q 475 220 475 271 q 461 155 475 186 q 420 97 448 123 l 322 0 l 203 0 l 203 804 l 526 949 l 848 804 l 848 0 l 729 0 m 322 -427 l 367 -397 q 397 -369 387 -384 q 407 -340 407 -355 q 394 -327 407 -331 q 356 -323 381 -323 l 322 -323 l 322 -427 m 1085 -509 l 1017 -509 q 801 -467 873 -509 q 729 -339 729 -424 l 729 -252 l 433 -168 l 322 -199 l 322 -255 l 356 -255 q 445 -276 415 -255 q 475 -339 475 -297 q 461 -399 475 -373 q 420 -444 448 -425 l 322 -509 l 203 -509 l 203 -161 l 526 -68 l 848 -162 l 848 -339 q 890 -415 848 -390 q 1017 -441 932 -441 l 1085 -441 q 1212 -415 1170 -441 q 1255 -339 1255 -390 l 1255 628 l 1136 703 l 1136 748 l 1240 949 l 1299 916 q 1383 882 1358 882 q 1401 895 1395 882 q 1407 932 1407 907 q 1381 996 1407 975 q 1305 1017 1356 1017 q 1322 1068 1305 1051 q 1373 1085 1339 1085 q 1449 1047 1424 1085 q 1475 932 1475 1009 q 1450 806 1475 848 q 1375 763 1425 763 q 1319 775 1352 763 q 1244 811 1286 787 l 1206 739 l 1373 633 l 1373 -339 q 1301 -467 1373 -424 q 1085 -509 1229 -509 z "},"ឧ":{"ha":1051,"x_min":203,"x_max":848,"o":"m 322 611 q 347 619 339 611 q 356 644 356 628 q 347 657 356 652 q 322 661 339 661 l 322 611 m 729 780 q 691 856 729 831 q 576 882 652 882 l 475 882 q 360 856 399 882 q 322 780 322 831 l 322 729 q 399 708 373 729 q 424 644 424 686 q 399 568 424 593 q 322 543 373 543 q 233 559 263 543 q 203 610 203 576 l 203 780 q 271 907 203 865 q 475 949 339 949 l 576 949 q 780 907 712 949 q 848 780 848 865 l 848 674 q 742 511 848 566 l 322 302 l 322 202 q 340 102 322 136 q 394 68 358 68 l 730 260 l 730 390 l 848 390 l 848 84 q 818 -4 848 25 q 730 -34 789 -34 q 644 51 644 -34 q 730 85 730 51 l 730 182 l 411 1 l 391 1 q 250 52 297 1 q 203 203 203 102 l 203 319 l 692 562 q 729 674 729 581 l 729 780 z "},"ឨ":{"ha":1051,"x_min":136,"x_max":915,"o":"m 522 1017 l 500 1017 l 332 1124 l 241 1076 l 323 1018 q 264 979 288 979 l 263 979 q 218 997 241 979 l 136 1061 l 136 1099 l 374 1221 l 401 1221 l 546 1129 l 650 1221 l 677 1221 l 812 1138 q 876 1120 842 1120 l 915 1120 q 829 1017 876 1017 q 736 1045 782 1017 l 629 1112 l 522 1017 m 322 611 q 347 619 339 611 q 356 644 356 628 q 347 657 356 652 q 322 661 339 661 l 322 611 m 729 780 q 691 856 729 831 q 576 882 652 882 l 475 882 q 360 856 399 882 q 322 780 322 831 l 322 729 q 399 708 373 729 q 424 644 424 686 q 399 568 424 593 q 322 543 373 543 q 233 559 263 543 q 203 610 203 576 l 203 780 q 271 907 203 865 q 475 949 339 949 l 576 949 q 780 907 712 949 q 848 780 848 865 l 848 674 q 742 511 848 566 l 322 302 l 322 202 q 340 102 322 136 q 394 68 358 68 l 730 260 l 730 390 l 848 390 l 848 84 q 818 -4 848 25 q 730 -34 789 -34 q 644 51 644 -34 q 730 85 730 51 l 730 182 l 411 1 l 391 1 q 250 52 297 1 q 203 203 203 102 l 203 319 l 692 562 q 729 674 729 581 l 729 780 z "},"ឩ":{"ha":1051,"x_min":203,"x_max":932,"o":"m 322 611 q 347 619 339 611 q 356 644 356 628 q 347 657 356 652 q 322 661 339 661 l 322 611 m 729 780 q 691 856 729 831 q 576 882 652 882 l 475 882 q 360 856 399 882 q 322 780 322 831 l 322 729 q 399 708 373 729 q 424 644 424 686 q 399 568 424 593 q 322 543 373 543 q 233 559 263 543 q 203 610 203 576 l 203 780 q 271 907 203 865 q 475 949 339 949 l 576 949 q 780 907 712 949 q 848 780 848 865 l 848 674 q 742 511 848 566 l 322 302 l 322 202 q 340 102 322 136 q 394 68 358 68 l 730 260 l 730 390 l 797 390 l 797 84 q 780 -4 797 25 q 730 -34 764 -34 q 666 -26 687 -34 q 644 0 644 -17 q 708 22 687 0 q 730 85 730 43 l 730 182 l 411 1 l 391 1 q 250 52 297 1 q 203 203 203 102 l 203 319 l 692 562 q 729 674 729 581 l 729 780 m 865 390 l 932 390 l 932 71 q 916 -33 932 1 q 865 -68 899 -68 q 827 -59 840 -68 q 814 -34 814 -51 q 852 -4 840 -34 q 865 72 865 26 l 865 390 z "},"ឪ":{"ha":1051,"x_min":136,"x_max":848,"o":"m 252 956 l 136 1045 l 136 1097 l 359 1238 l 397 1238 l 579 1085 l 610 1085 q 700 1109 669 1085 q 730 1170 730 1132 q 708 1246 730 1221 q 644 1272 687 1272 q 665 1323 644 1306 q 726 1339 686 1339 q 817 1297 787 1339 q 848 1170 848 1255 q 785 1056 848 1095 q 610 1017 723 1017 l 475 1017 l 330 1139 l 217 1067 l 322 983 l 252 956 m 322 611 q 347 619 339 611 q 356 644 356 628 q 347 657 356 652 q 322 661 339 661 l 322 611 m 729 780 q 691 856 729 831 q 576 882 652 882 l 475 882 q 360 856 399 882 q 322 780 322 831 l 322 729 q 399 708 373 729 q 424 644 424 686 q 399 568 424 593 q 322 543 373 543 q 233 559 263 543 q 203 610 203 576 l 203 780 q 271 907 203 865 q 475 949 339 949 l 576 949 q 780 907 712 949 q 848 780 848 865 l 848 674 q 742 511 848 566 l 322 302 l 322 202 q 340 102 322 136 q 394 68 358 68 l 730 260 l 730 390 l 848 390 l 848 84 q 818 -4 848 25 q 730 -34 789 -34 q 644 51 644 -34 q 730 85 730 51 l 730 182 l 411 1 l 391 1 q 250 52 297 1 q 203 203 203 102 l 203 319 l 692 562 q 729 674 729 581 l 729 780 z "},"ឫ":{"ha":1051,"x_min":85,"x_max":966,"o":"m 559 0 l 492 0 q 275 42 347 0 q 203 170 203 85 l 203 628 l 85 703 l 85 747 l 243 949 l 337 891 q 407 865 378 865 l 441 865 q 351 763 385 763 q 281 786 317 763 l 227 819 l 161 735 l 322 633 l 322 170 q 364 94 322 119 q 492 68 407 68 l 559 68 q 687 94 644 68 q 729 170 729 119 l 729 628 l 610 703 l 610 747 l 768 949 l 863 891 q 932 865 904 865 l 966 865 q 876 763 910 763 q 806 786 843 763 l 753 819 l 687 735 l 848 633 l 848 170 q 776 42 848 85 q 559 0 703 0 m 848 -170 q 743 -322 848 -271 q 429 -373 638 -373 q 250 -351 323 -373 q 136 -285 177 -329 q 429 -305 262 -305 q 654 -271 579 -305 q 729 -170 729 -237 q 717 -144 729 -153 q 679 -136 704 -136 q 700 -85 679 -102 q 763 -68 721 -68 q 827 -94 806 -68 q 848 -170 848 -119 z "},"ឬ":{"ha":1051,"x_min":85,"x_max":966,"o":"m 559 0 l 492 0 q 275 42 347 0 q 203 170 203 85 l 203 628 l 85 703 l 85 747 l 243 949 l 337 891 q 407 865 378 865 l 441 865 q 351 763 385 763 q 281 786 317 763 l 227 819 l 161 735 l 322 633 l 322 170 q 364 94 322 119 q 492 68 407 68 l 559 68 q 687 94 644 68 q 729 170 729 119 l 729 628 l 610 703 l 610 747 l 768 949 l 863 891 q 932 865 904 865 l 966 865 q 876 763 910 763 q 806 786 843 763 l 753 819 l 687 735 l 848 633 l 848 170 q 776 42 848 85 q 559 0 703 0 m 848 -170 q 825 -254 848 -217 q 863 -293 831 -279 q 949 -306 894 -306 q 922 -356 949 -339 q 840 -373 895 -373 q 771 -362 800 -373 q 725 -330 743 -351 q 599 -362 673 -351 q 429 -373 525 -373 q 251 -351 324 -373 q 136 -285 178 -329 q 430 -305 262 -305 q 654 -271 579 -305 q 729 -170 729 -237 q 678 -136 729 -136 q 700 -85 678 -102 q 764 -68 722 -68 q 827 -94 806 -68 q 848 -170 848 -119 z "},"ឭ":{"ha":1051,"x_min":136,"x_max":848,"o":"m 322 96 l 367 140 q 397 180 387 160 q 407 220 407 200 q 394 245 407 237 q 356 254 381 254 l 322 254 l 322 96 m 848 0 l 729 0 l 729 783 l 649 854 l 526 734 l 403 854 l 322 784 l 322 322 l 356 322 q 445 297 415 322 q 475 220 475 271 q 461 155 475 186 q 420 97 448 123 l 322 0 l 203 0 l 203 769 l 405 950 l 526 831 l 647 950 l 848 766 l 848 0 m 848 -170 q 743 -322 848 -271 q 429 -373 638 -373 q 250 -351 323 -373 q 136 -285 177 -329 q 429 -305 262 -305 q 654 -271 579 -305 q 729 -170 729 -237 q 717 -144 729 -153 q 679 -136 704 -136 q 700 -85 679 -102 q 763 -68 721 -68 q 827 -94 806 -68 q 848 -170 848 -119 z "},"ឮ":{"ha":1051,"x_min":136,"x_max":949,"o":"m 322 96 l 367 140 q 397 180 387 160 q 407 220 407 200 q 394 245 407 237 q 356 254 381 254 l 322 254 l 322 96 m 848 0 l 729 0 l 729 783 l 649 854 l 526 734 l 403 854 l 322 784 l 322 322 l 356 322 q 445 297 415 322 q 475 220 475 271 q 461 155 475 186 q 420 97 448 123 l 322 0 l 203 0 l 203 769 l 405 950 l 526 831 l 647 950 l 848 766 l 848 0 m 848 -170 q 825 -254 848 -217 q 863 -293 831 -279 q 949 -306 894 -306 q 922 -356 949 -339 q 840 -373 895 -373 q 771 -362 800 -373 q 725 -330 743 -351 q 599 -362 673 -351 q 429 -373 525 -373 q 251 -351 324 -373 q 136 -285 178 -329 q 430 -305 262 -305 q 654 -271 579 -305 q 729 -170 729 -237 q 678 -136 729 -136 q 700 -85 678 -102 q 764 -68 722 -68 q 827 -94 806 -68 q 848 -170 848 -119 z "},"ឯ":{"ha":1051,"x_min":85,"x_max":848,"o":"m 203 509 q 165 460 178 481 q 153 424 153 438 q 165 411 153 415 q 203 407 178 407 l 203 509 m 288 763 q 224 784 245 763 q 203 848 203 806 l 203 950 q 186 987 203 975 q 136 1000 170 1000 q 157 1064 136 1043 q 220 1085 178 1085 q 296 1051 271 1085 q 322 950 322 1017 l 322 858 l 526 949 l 848 804 l 848 0 l 729 0 l 526 131 l 322 0 l 203 0 l 203 339 q 115 360 144 339 q 85 423 85 381 q 101 484 85 452 q 151 552 118 515 l 203 610 l 322 610 l 322 81 l 526 212 l 729 81 l 729 727 l 465 847 l 322 783 q 288 763 322 764 z "},"ឰ":{"ha":1051,"x_min":203,"x_max":848,"o":"m 243 -328 q 477 -233 370 -292 q 671 -90 584 -174 l 730 -35 l 848 -35 l 848 -194 q 791 -360 848 -312 q 689 -392 753 -392 q 621 -385 658 -392 l 566 -372 q 528 -475 566 -441 q 413 -509 490 -509 q 256 -483 308 -509 q 203 -407 203 -458 q 243 -328 203 -343 m 730 -135 q 525 -286 629 -222 l 640 -315 q 661 -317 652 -317 q 707 -294 690 -317 q 730 -194 730 -264 l 730 -135 m 413 -441 q 467 -423 449 -441 q 486 -370 486 -406 l 486 -309 q 322 -387 394 -360 l 322 -407 q 345 -433 322 -424 q 413 -441 368 -441 m 322 96 l 367 140 q 397 180 387 160 q 407 220 407 200 q 394 245 407 237 q 356 254 381 254 l 322 254 l 322 96 m 848 0 l 729 0 l 729 783 l 649 854 l 526 734 l 403 854 l 322 784 l 322 322 l 356 322 q 445 297 415 322 q 475 220 475 271 q 461 155 475 186 q 420 97 448 123 l 322 0 l 203 0 l 203 769 l 405 950 l 526 831 l 647 950 l 848 766 l 848 0 z "},"ឱ":{"ha":1051,"x_min":136,"x_max":916,"o":"m 292 963 q 224 980 252 963 l 136 1031 l 136 1099 l 405 1234 q 548 1217 477 1234 q 685 1166 618 1200 l 801 1108 q 916 1085 848 1085 q 818 1017 916 1017 q 653 1050 720 1017 l 594 1080 q 479 1122 537 1108 q 363 1136 421 1136 l 220 1064 l 319 973 l 292 963 m 322 611 q 347 619 339 611 q 356 644 356 628 q 347 657 356 652 q 322 661 339 661 l 322 611 m 729 780 q 691 856 729 831 q 576 882 652 882 l 475 882 q 360 856 399 882 q 322 780 322 831 l 322 729 q 399 708 373 729 q 424 644 424 686 q 399 568 424 593 q 322 543 373 543 q 233 559 263 543 q 203 610 203 576 l 203 780 q 271 907 203 865 q 475 949 339 949 l 576 949 q 780 907 712 949 q 848 780 848 865 l 848 674 q 742 511 848 566 l 322 302 l 322 202 q 340 102 322 136 q 394 68 358 68 l 730 260 l 730 390 l 848 390 l 848 84 q 818 -4 848 25 q 730 -34 789 -34 q 644 51 644 -34 q 730 85 730 51 l 730 182 l 411 1 l 391 1 q 250 52 297 1 q 203 203 203 102 l 203 319 l 692 562 q 729 674 729 581 l 729 780 z "},"ឲ":{"ha":1051,"x_min":203,"x_max":848,"o":"m 566 158 q 486 208 486 158 l 486 208 l 693 374 q 730 475 730 401 q 713 538 730 517 q 661 560 696 560 q 618 549 633 560 q 604 514 604 537 q 615 485 604 494 q 646 475 625 475 q 606 395 646 395 q 515 425 546 395 q 486 514 486 455 q 529 600 486 571 q 661 627 573 627 q 801 589 755 627 q 848 475 848 551 q 785 336 848 383 l 755 312 q 825 265 802 300 q 848 170 848 229 q 780 43 848 85 q 577 0 712 0 l 475 0 q 271 43 339 0 q 203 170 203 85 l 203 804 l 526 949 l 848 804 l 729 727 l 465 847 l 322 783 l 322 170 q 360 94 322 119 q 475 68 399 68 l 577 68 q 692 94 653 68 q 730 170 730 119 q 715 220 730 203 q 670 237 700 237 l 663 237 l 566 158 z "},"ឳ":{"ha":1051,"x_min":136,"x_max":917,"o":"m 326 949 q 290 940 309 940 q 216 966 258 940 l 136 1017 l 136 1085 l 380 1221 q 578 1174 487 1221 l 680 1120 q 671 1167 671 1141 q 696 1267 671 1211 q 881 1357 736 1356 q 917 1323 917 1357 q 882 1289 917 1289 q 779 1214 801 1289 q 766 1148 766 1179 q 795 1063 766 1101 q 728 998 771 1009 q 704 994 717 994 q 626 1017 670 994 l 486 1089 q 337 1119 424 1119 l 213 1050 l 326 949 m 322 611 q 347 619 339 611 q 356 644 356 628 q 347 657 356 652 q 322 661 339 661 l 322 611 m 729 780 q 691 856 729 831 q 576 882 652 882 l 475 882 q 360 856 399 882 q 322 780 322 831 l 322 729 q 399 708 373 729 q 424 644 424 686 q 399 568 424 593 q 322 543 373 543 q 233 559 263 543 q 203 610 203 576 l 203 780 q 271 907 203 865 q 475 949 339 949 l 576 949 q 780 907 712 949 q 848 780 848 865 l 848 674 q 742 511 848 566 l 322 302 l 322 202 q 340 102 322 136 q 394 68 358 68 l 730 260 l 730 390 l 848 390 l 848 84 q 818 -4 848 25 q 730 -34 789 -34 q 644 51 644 -34 q 730 85 730 51 l 730 182 l 411 1 l 391 1 q 250 52 297 1 q 203 203 203 102 l 203 319 l 692 562 q 729 674 729 581 l 729 780 z "},"ា":{"ha":526,"x_min":-270,"x_max":322,"o":"m 203 0 l 203 727 l -61 847 l -203 783 l -270 827 l 0 949 l 322 804 l 322 0 l 203 0 z "},"ិ":{"ha":0,"x_min":-746,"x_max":-203,"o":"m -746 1187 q -698 1314 -746 1272 q -552 1356 -649 1356 q -425 1327 -495 1356 q -276 1240 -357 1298 l -203 1187 l -203 1119 l -630 1119 q -717 1136 -688 1119 q -746 1187 -746 1153 m -552 1255 q -610 1238 -591 1255 q -630 1187 -630 1221 l -328 1187 q -430 1238 -374 1221 q -552 1255 -486 1255 z "},"ី":{"ha":0,"x_min":-746,"x_max":-203,"o":"m -746 1190 q -698 1322 -746 1278 q -552 1366 -649 1366 q -427 1336 -495 1366 q -281 1248 -360 1306 l -281 1390 l -203 1390 l -203 1119 l -630 1119 q -717 1137 -688 1119 q -746 1190 -746 1154 m -552 1259 q -610 1242 -591 1259 q -630 1190 -630 1224 l -328 1190 q -430 1242 -374 1224 q -552 1259 -486 1259 z "},"ឹ":{"ha":0,"x_min":-746,"x_max":-203,"o":"m -321 1459 q -233 1430 -262 1459 q -204 1342 -204 1400 q -216 1278 -204 1303 q -254 1239 -230 1253 l -203 1196 l -203 1119 l -630 1119 q -746 1196 -746 1119 q -698 1342 -746 1293 q -552 1390 -649 1390 q -435 1361 -498 1390 q -402 1434 -431 1410 q -321 1459 -373 1459 m -552 1274 q -610 1255 -591 1274 q -630 1196 -630 1236 l -328 1196 q -430 1255 -374 1236 q -552 1274 -486 1274 m -321 1381 q -349 1371 -340 1381 q -359 1341 -359 1361 q -349 1312 -359 1322 q -340 1306 -345 1309 q -321 1303 -332 1303 q -291 1313 -301 1303 q -281 1342 -281 1322 q -291 1372 -281 1362 q -321 1381 -301 1381 z "},"ឺ":{"ha":0,"x_min":-746,"x_max":-203,"o":"m -746 1196 q -698 1342 -746 1293 q -552 1390 -649 1390 q -436 1362 -498 1390 l -436 1468 l -359 1468 l -359 1318 q -281 1261 -321 1293 l -281 1468 l -203 1468 l -203 1119 l -630 1119 q -717 1139 -688 1119 q -746 1196 -746 1158 m -552 1274 q -610 1255 -591 1274 q -630 1196 -630 1235 l -328 1196 q -430 1255 -374 1235 q -552 1274 -486 1274 z "},"ុ":{"ha":0,"x_min":-356,"x_max":-203,"o":"m -322 -509 l -322 -203 q -331 -178 -322 -186 q -356 -170 -339 -170 q -337 -119 -356 -136 q -279 -102 -318 -102 q -222 -119 -241 -102 q -203 -170 -203 -136 l -203 -509 l -322 -509 z "},"ូ":{"ha":0,"x_min":-678,"x_max":-203,"o":"m -488 -102 q -453 -119 -465 -102 q -441 -171 -441 -136 q -467 -239 -441 -204 q -507 -284 -481 -257 q -576 -351 -534 -312 q -569 -394 -576 -380 q -547 -408 -562 -408 q -428 -332 -480 -385 q -338 -197 -376 -279 q -293 -125 -319 -149 q -235 -102 -267 -102 q -203 -119 -203 -102 q -213 -144 -203 -134 q -246 -214 -222 -152 q -363 -387 -288 -321 q -547 -475 -438 -452 q -646 -444 -612 -475 q -678 -351 -678 -413 q -647 -282 -678 -299 q -543 -228 -578 -253 q -509 -183 -509 -203 q -543 -170 -509 -170 q -529 -119 -543 -136 q -488 -102 -515 -102 z "},"ួ":{"ha":0,"x_min":-678,"x_max":-203,"o":"m -488 -102 q -453 -119 -465 -102 q -441 -170 -441 -136 q -451 -214 -441 -190 q -478 -262 -460 -237 q -520 -311 -495 -286 q -576 -357 -545 -335 q -568 -395 -576 -382 q -542 -408 -559 -408 l -452 -340 l -408 -408 q -355 -334 -380 -393 q -306 -170 -330 -275 q -281 -119 -298 -136 q -237 -102 -264 -102 q -203 -119 -204 -102 q -210 -170 -203 -136 q -293 -389 -237 -313 q -431 -475 -349 -465 l -469 -408 l -537 -475 q -643 -449 -608 -475 q -678 -373 -678 -424 l -678 -305 q -551 -240 -593 -270 q -509 -183 -509 -209 q -543 -170 -509 -170 q -529 -119 -543 -136 q -488 -102 -515 -102 z "},"ើ":{"ha":0,"x_min":-746,"x_max":-203,"o":"m -746 1190 q -698 1322 -746 1278 q -552 1366 -649 1366 q -427 1336 -495 1366 q -281 1248 -360 1306 l -281 1390 l -203 1390 l -203 1119 l -630 1119 q -717 1137 -688 1119 q -746 1190 -746 1154 m -552 1259 q -610 1242 -591 1259 q -630 1190 -630 1224 l -328 1190 q -430 1242 -374 1224 q -552 1259 -486 1259 z "},"ឿ":{"ha":526,"x_min":-322,"x_max":322,"o":"m -153 1278 q -203 1270 -186 1278 q -220 1244 -220 1261 q -212 1219 -220 1227 q -186 1211 -203 1211 l 51 1211 q -34 1261 17 1244 q -153 1278 -85 1278 m 322 -237 q 262 -365 322 -322 q 85 -407 203 -407 l -85 -407 q -262 -365 -203 -407 q -322 -237 -322 -322 l -322 -68 l -203 -68 l -203 -237 q -174 -313 -203 -288 q -85 -339 -144 -339 l 85 -339 q 174 -313 144 -339 q 203 -237 203 -288 l 203 1008 q 182 1109 203 1076 q 119 1143 161 1143 l -186 1143 q -262 1168 -237 1143 q -288 1244 -288 1194 q -254 1321 -288 1295 q -153 1346 -220 1346 q -17 1326 -51 1346 l -17 1414 l 51 1414 l 51 1295 l 119 1244 l 119 1414 l 186 1414 l 186 1211 q 288 1126 254 1176 q 322 1008 322 1075 l 322 -237 z "},"ៀ":{"ha":526,"x_min":-322,"x_max":322,"o":"m 203 1001 q 182 1086 203 1058 q 119 1115 161 1115 l -51 1115 q -203 1149 -153 1115 q -254 1251 -254 1183 l -254 1312 q -271 1337 -254 1329 q -322 1345 -288 1345 q -301 1396 -322 1379 q -238 1413 -280 1413 q -161 1388 -186 1413 q -136 1312 -136 1362 l -136 1251 q -115 1200 -136 1217 q -51 1183 -93 1183 l 119 1183 q 271 1137 220 1183 q 322 1001 322 1092 l 322 -237 q 262 -365 322 -322 q 85 -407 203 -407 l -85 -407 q -262 -365 -203 -407 q -322 -237 -322 -322 l -322 -68 l -203 -68 l -203 -237 q -174 -313 -203 -288 q -85 -339 -144 -339 l 85 -339 q 174 -313 144 -339 q 203 -237 203 -288 l 203 1001 z "},"េ":{"ha":526,"x_min":203,"x_max":480,"o":"m 323 784 l 323 322 q 412 296 382 322 q 441 220 441 271 q 425 138 441 179 q 373 58 407 98 l 322 0 l 203 0 l 203 949 l 283 949 l 376 890 q 444 870 408 870 l 480 870 q 407 751 441 751 q 336 775 374 751 l 323 784 m 323 105 q 361 163 348 134 q 373 221 373 192 q 361 245 373 237 q 323 254 348 254 l 323 105 z "},"ែ":{"ha":526,"x_min":102,"x_max":492,"o":"m 251 1119 q 214 1102 214 1119 q 288 1085 214 1085 q 351 1111 330 1085 q 372 1187 372 1136 q 342 1263 372 1238 q 251 1289 312 1289 q 326 1356 251 1356 q 450 1314 408 1356 q 492 1187 492 1272 q 441 1059 492 1102 q 288 1017 390 1017 q 149 1038 195 1017 q 102 1102 102 1059 q 121 1166 102 1145 q 176 1187 139 1187 q 232 1170 214 1187 q 251 1119 251 1153 m 323 784 l 323 322 q 412 296 382 322 q 441 220 441 271 q 425 138 441 179 q 373 58 407 98 l 322 0 l 203 0 l 203 949 l 283 949 l 376 890 q 444 870 408 870 l 480 870 q 407 751 441 751 q 336 775 374 751 l 323 784 m 323 105 q 361 163 348 134 q 373 221 373 192 q 361 245 373 237 q 323 254 348 254 l 323 105 z "},"ៃ":{"ha":526,"x_min":68,"x_max":480,"o":"m 241 1153 q 271 1085 241 1085 q 322 1102 305 1085 q 339 1153 339 1119 q 322 1204 339 1187 q 271 1221 305 1221 l 241 1221 q 121 1289 121 1221 q 68 1343 121 1343 q 136 1411 68 1411 q 214 1380 189 1411 q 241 1289 241 1350 l 271 1289 q 412 1255 365 1289 q 458 1153 458 1221 q 412 1051 458 1085 q 271 1017 365 1017 q 121 1085 121 1017 q 241 1153 121 1153 m 323 784 l 323 322 q 412 296 382 322 q 441 220 441 271 q 425 138 441 179 q 373 58 407 98 l 322 0 l 203 0 l 203 949 l 283 949 l 376 890 q 444 870 408 870 l 480 870 q 407 751 441 751 q 336 775 374 751 l 323 784 m 323 105 q 361 163 348 134 q 373 221 373 192 q 361 245 373 237 q 323 254 348 254 l 323 105 z "},"ោ":{"ha":526,"x_min":-270,"x_max":322,"o":"m 203 0 l 203 727 l -61 847 l -203 783 l -270 827 l 0 949 l 322 804 l 322 0 l 203 0 z "},"ៅ":{"ha":526,"x_min":-270,"x_max":356,"o":"m 203 0 l 203 727 l -61 847 l -203 783 l -270 827 l 0 949 l 238 842 l 238 1119 q 221 1170 238 1153 q 170 1187 204 1187 q 193 1238 170 1221 q 263 1255 216 1255 q 333 1221 310 1255 q 356 1119 356 1187 l 356 848 q 322 746 356 814 l 322 0 l 203 0 z "},"ំ":{"ha":0,"x_min":-610,"x_max":-305,"o":"m -526 1238 q -509 1187 -526 1204 q -458 1170 -492 1170 q -407 1187 -424 1170 q -390 1238 -390 1204 q -407 1289 -390 1272 q -458 1305 -424 1305 q -509 1289 -492 1305 q -526 1238 -526 1272 m -305 1238 q -343 1123 -305 1161 q -458 1085 -381 1085 q -572 1123 -534 1085 q -610 1238 -610 1161 q -572 1352 -610 1314 q -458 1390 -534 1390 q -343 1352 -381 1390 q -305 1238 -305 1314 z "},"ះ":{"ha":712,"x_min":203,"x_max":509,"o":"m 288 797 q 305 746 288 763 q 356 729 322 729 q 407 746 390 729 q 424 797 424 763 q 407 848 424 831 q 356 865 390 865 q 305 848 322 865 q 288 797 288 831 m 509 797 q 471 682 509 720 q 356 644 433 644 q 241 682 279 644 q 203 797 203 720 q 241 911 203 873 q 356 949 279 949 q 471 911 433 949 q 509 797 509 873 m 288 153 q 305 102 288 119 q 356 85 322 85 q 407 102 390 85 q 424 153 424 119 q 407 203 424 186 q 356 220 390 220 q 305 203 322 220 q 288 153 288 186 m 509 153 q 471 38 509 76 q 356 0 433 0 q 241 38 279 0 q 203 153 203 76 q 241 267 203 229 q 356 305 279 305 q 471 267 433 305 q 509 153 509 229 z "},"ៈ":{"ha":576,"x_min":203,"x_max":441,"o":"m 288 0 q 224 21 245 0 q 203 85 203 42 q 224 149 203 127 q 288 170 245 170 q 352 148 331 170 q 373 84 373 127 q 390 64 373 64 q 441 84 407 64 q 386 21 424 42 q 288 0 347 0 m 288 677 q 224 698 245 677 q 203 762 203 719 q 224 825 203 804 q 288 846 245 846 q 352 825 331 846 q 373 761 373 804 q 390 741 373 741 q 441 761 407 741 q 386 698 424 719 q 288 677 347 677 z "},"៉":{"ha":0,"x_min":-611,"x_max":-302,"o":"m -526 1322 l -526 1119 l -568 1085 l -610 1119 l -611 1322 l -526 1322 m -302 1322 l -302 1119 l -345 1085 l -387 1119 l -387 1322 l -302 1322 z "},"៊":{"ha":0,"x_min":-882,"x_max":-170,"o":"m -539 983 l -563 983 l -685 1077 l -788 1029 l -724 983 l -832 983 l -882 1019 l -882 1051 l -668 1153 l -633 1153 l -525 1073 l -419 1153 l -384 1153 l -261 1084 q -205 1068 -232 1068 l -170 1068 q -236 983 -205 983 q -307 1006 -266 983 l -423 1072 l -539 983 z "},"់":{"ha":0,"x_min":-576,"x_max":-473,"o":"m -473 1356 l -473 1133 l -526 1085 l -576 1133 l -576 1356 l -473 1356 z "},"៌":{"ha":0,"x_min":-712,"x_max":-271,"o":"m -610 1187 q -534 1161 -559 1187 q -509 1111 -509 1136 l -509 1085 l -576 1085 q -610 1119 -576 1119 q -686 1136 -661 1119 q -712 1187 -712 1153 q -678 1263 -712 1238 q -576 1289 -644 1289 q -475 1263 -526 1289 q -373 1187 -424 1238 l -356 1170 q -271 1153 -339 1153 q -340 1085 -305 1085 q -408 1119 -374 1085 q -495 1195 -453 1170 q -576 1221 -537 1221 q -602 1213 -593 1221 q -610 1187 -610 1204 z "},"៍":{"ha":0,"x_min":-678,"x_max":-231,"o":"m -576 1204 q -568 1166 -576 1179 q -543 1154 -559 1154 q -509 1166 -509 1154 q -475 1187 -509 1187 q -441 1166 -441 1187 q -471 1105 -441 1126 q -559 1085 -500 1085 q -648 1115 -618 1085 q -678 1204 -678 1145 q -644 1293 -678 1263 q -543 1322 -610 1322 q -437 1289 -477 1322 q -346 1339 -386 1306 q -277 1421 -305 1372 l -269 1422 q -241 1402 -256 1422 q -231 1379 -231 1389 q -239 1363 -231 1370 q -310 1286 -269 1320 q -402 1228 -351 1253 q -450 1221 -427 1221 q -543 1255 -500 1255 q -568 1242 -559 1255 q -576 1204 -576 1230 z "},"៎":{"ha":0,"x_min":-661,"x_max":-390,"o":"m -559 1187 l -661 1187 l -661 1255 l -559 1255 l -559 1356 l -492 1356 l -492 1255 l -390 1255 l -390 1187 l -492 1187 l -492 1086 l -559 1086 l -559 1187 z "},"៏":{"ha":0,"x_min":-678,"x_max":-237,"o":"m -407 1062 q -498 1108 -464 1062 q -559 1062 -524 1062 q -678 1216 -667 1110 q -475 1334 -596 1334 q -390 1399 -441 1374 q -272 1424 -339 1424 q -237 1396 -237 1424 q -271 1367 -237 1367 q -348 1357 -307 1367 q -407 1299 -389 1346 q -477 1266 -414 1266 q -611 1208 -545 1266 q -603 1186 -607 1196 q -591 1167 -598 1177 q -575 1149 -585 1158 q -551 1130 -565 1140 q -496 1181 -524 1142 q -407 1130 -427 1130 q -375 1151 -375 1130 q -421 1164 -375 1164 q -434 1198 -434 1164 q -409 1232 -434 1232 q -306 1151 -306 1232 q -407 1062 -306 1062 z "},"័":{"ha":0,"x_min":-610,"x_max":-136,"o":"m -509 1266 q -441 1215 -441 1266 q -492 1164 -441 1164 q -549 1198 -543 1164 q -441 1131 -543 1131 q -263 1167 -322 1131 q -203 1275 -203 1203 q -237 1356 -203 1356 q -271 1390 -271 1356 q -237 1424 -271 1424 q -161 1387 -186 1424 q -136 1275 -136 1350 q -212 1116 -136 1168 q -441 1063 -288 1063 q -568 1097 -526 1063 q -610 1198 -610 1131 q -509 1266 -610 1266 z "},"៑":{"ha":0,"x_min":-848,"x_max":-204,"o":"m -204 1153 l -204 1085 l -848 1085 l -848 1153 l -204 1153 z "},"្":{"ha":0,"x_min":-576,"x_max":-305,"o":"m -305 -305 l -407 -305 l -407 -407 l -475 -407 l -475 -305 l -576 -305 l -576 -237 l -475 -237 l -475 -136 l -407 -136 l -407 -237 l -305 -237 l -305 -305 z "},"៓":{"ha":0,"x_min":-695,"x_max":-356,"o":"m -627 1187 q -602 1136 -627 1153 q -526 1119 -576 1119 q -449 1136 -475 1119 q -424 1187 -424 1153 q -449 1238 -424 1221 q -526 1255 -475 1255 q -602 1238 -576 1255 q -627 1187 -627 1221 m -356 1187 q -399 1085 -356 1119 q -526 1051 -441 1051 q -652 1085 -610 1051 q -695 1187 -695 1119 q -652 1289 -695 1255 q -526 1322 -610 1322 q -399 1289 -441 1322 q -356 1187 -356 1255 z "},"។":{"ha":1051,"x_min":203,"x_max":848,"o":"m 203 831 q 236 920 203 890 q 332 949 268 949 q 401 932 378 949 q 425 882 425 916 q 348 869 373 882 q 322 831 322 857 q 335 793 322 806 q 373 781 348 781 q 451 797 406 781 q 551 846 495 813 l 730 949 l 848 949 l 848 119 q 815 30 848 60 q 719 0 783 0 q 663 17 682 0 q 644 68 644 34 q 708 81 687 68 q 729 119 729 94 l 729 872 l 589 789 q 469 731 523 751 q 373 712 415 712 q 246 742 288 712 q 203 831 203 772 z "},"៕":{"ha":1255,"x_min":203,"x_max":1051,"o":"m 949 949 l 1051 949 l 1051 102 q 1009 26 1051 51 q 882 0 966 0 q 932 42 916 17 q 949 102 949 68 l 949 949 m 203 831 q 236 920 203 890 q 332 949 268 949 q 401 932 378 949 q 425 882 425 916 q 348 869 373 882 q 322 831 322 857 q 335 793 322 806 q 373 781 348 781 q 451 797 406 781 q 551 846 495 813 l 730 949 l 848 949 l 848 119 q 815 30 848 60 q 719 0 783 0 q 663 17 682 0 q 644 68 644 34 q 708 81 687 68 q 729 119 729 94 l 729 872 l 589 789 q 469 731 523 751 q 373 712 415 712 q 246 742 288 712 q 203 831 203 772 z "},"៖":{"ha":712,"x_min":136,"x_max":576,"o":"m 288 797 q 305 746 288 763 q 356 729 322 729 q 407 746 390 729 q 424 797 424 763 q 407 848 424 831 q 356 865 390 865 q 305 848 322 865 q 288 797 288 831 m 509 797 q 471 682 509 720 q 356 644 433 644 q 241 682 279 644 q 203 797 203 720 q 241 911 203 873 q 356 949 279 949 q 471 911 433 949 q 509 797 509 873 m 288 153 q 305 102 288 119 q 356 85 322 85 q 407 102 390 85 q 424 153 424 119 q 407 203 424 186 q 356 220 390 220 q 305 203 322 220 q 288 153 288 186 m 509 153 q 471 38 509 76 q 356 0 433 0 q 241 38 279 0 q 203 153 203 76 q 241 267 203 229 q 356 305 279 305 q 471 267 433 305 q 509 153 509 229 m 576 526 l 576 423 l 136 423 l 136 525 l 576 526 z "},"ៗ":{"ha":1051,"x_min":203,"x_max":848,"o":"m 365 628 q 240 661 277 628 q 203 752 203 693 q 271 850 224 801 q 388 949 317 900 l 566 807 l 762 949 l 848 949 l 848 237 q 777 59 848 119 q 566 0 707 0 q 355 30 425 0 q 284 119 284 59 q 304 178 284 158 q 365 197 324 197 q 415 100 365 133 q 566 68 465 68 q 689 111 648 68 q 730 237 730 153 l 730 840 l 567 722 l 415 840 l 322 752 q 333 722 322 732 q 365 712 343 712 q 395 721 385 712 q 405 746 405 729 q 435 732 425 746 q 445 687 445 717 q 425 642 445 657 q 365 628 405 628 z "},"៘":{"ha":3679,"x_min":203,"x_max":3476,"o":"m 203 831 q 236 920 203 890 q 332 949 268 949 q 401 932 378 949 q 425 882 425 916 q 348 869 373 882 q 322 831 322 857 q 335 793 322 806 q 373 781 348 781 q 451 797 406 781 q 551 846 495 813 l 730 949 l 848 949 l 848 119 q 815 30 848 60 q 719 0 783 0 q 663 17 682 0 q 644 68 644 34 q 708 81 687 68 q 729 119 729 94 l 729 872 l 589 789 q 469 731 523 751 q 373 712 415 712 q 246 742 288 712 q 203 831 203 772 m 1373 96 l 1418 140 q 1448 180 1438 160 q 1458 220 1458 200 q 1445 245 1458 237 q 1407 254 1432 254 l 1373 254 l 1373 96 m 2136 0 l 2068 0 q 1852 42 1924 0 q 1780 170 1780 85 l 1780 727 l 1516 847 l 1373 783 l 1373 322 l 1407 322 q 1496 297 1466 322 q 1526 220 1526 271 q 1512 155 1526 186 q 1472 97 1499 123 l 1373 0 l 1255 0 l 1255 804 l 1577 949 l 1899 804 l 1899 170 q 1942 94 1899 119 q 2068 68 1984 68 l 2136 68 q 2263 94 2221 68 q 2306 170 2306 119 l 2306 628 l 2187 703 l 2187 747 l 2345 949 l 2439 891 q 2509 865 2481 865 l 2543 865 q 2453 763 2487 763 q 2383 786 2420 763 l 2330 819 l 2264 735 l 2424 633 l 2424 170 q 2353 42 2424 85 q 2136 0 2280 0 m 2831 831 q 2864 920 2831 890 q 2960 949 2896 949 q 3029 932 3006 949 q 3052 882 3052 916 q 2976 869 3001 882 q 2950 831 2950 857 q 2963 793 2950 806 q 3001 781 2976 781 q 3079 797 3034 781 q 3179 846 3123 813 l 3358 949 l 3476 949 l 3476 119 q 3443 30 3476 60 q 3347 0 3411 0 q 3291 17 3309 0 q 3272 68 3272 34 q 3336 81 3315 68 q 3357 119 3357 94 l 3357 872 l 3217 789 q 3097 731 3151 751 q 3001 712 3043 712 q 2874 742 2916 712 q 2831 831 2831 772 z "},"៙":{"ha":1051,"x_min":203,"x_max":848,"o":"m 526 0 q 284 119 365 0 q 203 475 203 237 q 284 831 203 712 q 526 949 365 949 q 767 831 686 949 q 848 475 848 712 q 767 119 848 237 q 526 0 686 0 m 526 870 q 345 772 405 870 q 284 475 284 673 q 345 178 284 277 q 526 79 405 79 q 707 178 646 79 q 767 475 767 277 q 707 772 767 673 q 526 870 646 870 m 526 158 q 405 237 445 158 q 365 475 365 317 q 405 712 365 633 q 526 791 445 791 q 646 712 606 791 q 686 475 686 633 q 646 237 686 317 q 526 158 606 158 m 526 712 q 465 653 486 712 q 445 475 445 593 q 465 297 445 356 q 526 237 486 237 q 586 297 566 237 q 606 475 606 356 q 586 653 606 593 q 526 712 566 712 z "},"៚":{"ha":1763,"x_min":203,"x_max":1560,"o":"m 407 949 q 612 689 612 949 q 443 518 612 518 q 408 561 408 518 q 443 604 408 604 q 543 691 543 604 q 408 863 543 863 q 271 691 271 863 l 271 258 q 408 84 271 84 q 544 179 476 84 q 680 473 612 275 l 814 860 l 882 860 l 1052 231 l 1153 773 l 1221 773 l 1322 323 l 1391 516 l 1527 516 q 1560 473 1560 516 q 1527 429 1560 429 l 1425 429 l 1357 173 l 1289 173 l 1187 604 l 1086 86 l 1018 86 l 848 754 l 734 429 q 407 0 585 0 q 203 258 203 0 l 203 691 q 407 949 203 949 z "},"៛":{"ha":526,"x_min":85,"x_max":441,"o":"m 203 254 l 186 254 q 161 245 170 254 q 153 220 153 237 q 165 180 153 206 q 203 118 178 155 l 203 254 m 322 0 l 203 0 l 144 85 q 100 162 115 128 q 85 220 85 195 q 111 297 85 271 q 186 322 136 322 l 203 322 l 203 408 l 85 408 l 85 475 l 203 475 l 203 628 l 85 703 l 85 747 l 243 949 l 337 891 q 407 865 378 865 l 441 865 q 351 763 385 763 q 281 786 317 763 l 227 819 l 161 735 l 322 633 l 322 475 l 441 475 l 441 407 l 322 407 l 322 0 z "},"០":{"ha":1051,"x_min":203,"x_max":848,"o":"m 526 0 q 284 60 365 0 q 203 237 203 119 l 203 712 q 284 890 203 831 q 526 949 365 949 q 767 890 686 949 q 848 712 848 831 l 848 237 q 767 60 848 119 q 526 0 686 0 m 526 882 q 373 840 424 882 q 322 712 322 797 l 322 237 q 373 111 322 153 q 526 68 424 68 q 678 111 627 68 q 729 237 729 153 l 729 712 q 678 840 729 797 q 526 882 627 882 z "},"១":{"ha":1051,"x_min":203,"x_max":848,"o":"m 526 0 q 284 50 365 0 q 203 198 203 99 q 224 257 203 237 q 284 277 243 277 q 345 121 284 172 q 526 68 405 68 q 679 130 627 68 q 730 317 730 193 l 730 712 q 679 840 730 797 q 526 882 627 882 q 373 840 424 882 q 322 712 322 797 l 322 633 q 353 566 322 588 q 445 543 384 543 q 480 555 469 543 q 492 593 492 568 q 543 644 492 644 q 594 593 594 644 q 557 505 594 534 q 445 475 519 475 q 264 514 324 475 q 203 633 203 554 l 203 712 q 284 890 203 831 q 526 949 365 949 q 767 890 686 949 q 848 712 848 831 l 848 317 q 767 79 848 158 q 526 0 686 0 z "},"២":{"ha":1119,"x_min":136,"x_max":916,"o":"m 916 158 q 827 39 916 79 q 559 0 738 0 q 292 39 381 0 q 203 158 203 79 l 203 1035 q 136 1085 203 1085 q 159 1136 136 1119 q 229 1153 182 1153 q 299 1123 275 1153 q 322 1035 322 1094 l 322 158 q 381 91 322 113 q 559 68 441 68 q 738 91 678 68 q 798 158 798 113 l 798 798 l 684 730 l 559 808 l 559 593 q 608 560 559 560 l 610 560 q 559 509 610 509 q 471 530 500 509 q 441 593 441 551 l 441 949 l 460 949 l 684 810 l 916 949 l 916 158 z "},"៣":{"ha":1322,"x_min":203,"x_max":1119,"o":"m 1119 0 l 1000 0 l 1000 712 l 823 837 l 721 766 l 729 760 l 729 0 l 610 0 l 610 699 l 418 835 l 322 768 l 322 322 q 411 295 381 322 q 441 214 441 268 q 425 125 441 165 q 375 53 408 85 l 322 0 l 203 0 l 203 769 l 463 949 l 662 808 l 867 949 l 1119 773 l 1119 0 m 322 98 q 360 151 347 122 q 373 213 373 180 q 360 244 373 233 q 322 254 347 254 l 322 98 z "},"៤":{"ha":1051,"x_min":203,"x_max":916,"o":"m 729 425 q 766 437 753 425 q 780 475 780 450 q 766 551 780 526 q 729 577 753 577 l 729 425 m 322 158 q 353 91 322 113 q 445 68 384 68 l 785 68 l 610 277 l 610 553 q 640 621 610 599 q 729 644 670 644 q 817 602 787 644 q 848 475 848 559 q 817 386 848 415 q 729 356 787 356 l 729 269 l 848 92 l 848 0 l 445 0 q 264 39 324 0 q 203 158 203 79 l 203 791 l 422 949 l 476 949 l 712 869 q 729 949 729 869 l 729 1017 q 759 1119 729 1085 q 848 1153 788 1153 q 899 1136 882 1153 q 916 1085 916 1119 q 865 1068 882 1085 q 848 1017 848 1051 l 848 949 q 818 831 848 871 q 728 791 788 791 l 450 886 l 322 793 l 322 158 z "},"៥":{"ha":1051,"x_min":203,"x_max":916,"o":"m 492 951 q 475 1001 492 984 q 425 1018 458 1018 q 374 1001 391 1018 q 357 951 357 984 q 369 913 357 928 q 406 890 381 899 l 453 876 q 482 907 473 888 q 492 951 492 926 m 730 322 q 768 336 755 322 q 780 376 780 349 q 768 450 780 425 q 730 475 755 475 l 730 322 m 322 167 q 353 93 322 117 q 445 68 384 68 l 779 68 l 611 201 l 611 458 q 641 522 611 500 q 730 543 670 543 q 818 500 789 543 q 848 376 848 459 q 818 285 848 315 q 730 254 789 254 l 730 214 l 848 110 l 848 0 l 445 0 q 264 42 324 0 q 203 167 203 83 l 203 709 l 379 827 q 311 873 334 842 q 289 949 289 903 q 323 1051 289 1017 q 425 1085 357 1085 q 526 1052 492 1085 q 559 951 559 1018 q 547 879 559 909 q 528 850 540 864 l 713 789 q 730 876 730 789 l 729 1017 q 759 1119 729 1085 q 848 1153 788 1153 q 899 1136 882 1153 q 916 1085 916 1119 q 865 1068 882 1085 q 848 1017 848 1051 l 848 876 q 818 753 848 794 q 729 712 789 712 l 463 800 l 322 706 l 322 167 z "},"៦":{"ha":1051,"x_min":136,"x_max":848,"o":"m 848 237 q 767 60 848 119 q 526 0 686 0 q 284 60 365 0 q 203 237 203 119 l 203 317 q 254 435 203 395 q 405 475 304 475 q 526 445 486 475 q 566 356 566 415 q 551 326 566 336 q 507 317 537 317 q 463 326 477 317 q 448 356 448 336 q 437 395 448 382 q 405 407 427 407 q 343 385 363 407 q 322 317 322 362 l 322 237 q 373 111 322 153 q 526 68 424 68 q 679 111 627 68 q 730 237 730 153 l 730 698 l 476 842 l 322 756 l 322 633 l 203 633 l 203 1051 q 186 1077 203 1068 q 136 1085 170 1085 q 153 1136 136 1119 q 220 1153 170 1153 q 292 1127 263 1153 q 322 1051 322 1102 l 322 836 l 526 949 l 848 768 l 848 237 z "},"៧":{"ha":1289,"x_min":203,"x_max":1085,"o":"m 322 96 l 367 140 q 397 180 387 160 q 407 220 407 200 q 394 245 407 237 q 356 254 381 254 l 322 254 l 322 96 m 916 68 q 954 85 941 68 q 966 136 966 102 l 966 1051 q 949 1077 966 1068 q 899 1085 932 1085 q 920 1136 899 1119 q 983 1153 941 1153 q 1059 1127 1034 1153 q 1085 1051 1085 1102 l 1085 136 q 1043 34 1085 68 q 916 0 1000 0 l 729 0 l 729 783 l 649 854 l 526 734 l 403 854 l 322 784 l 322 322 l 356 322 q 445 297 415 322 q 475 220 475 271 q 461 155 475 186 q 420 97 448 123 l 322 0 l 203 0 l 203 769 l 405 949 l 526 831 l 647 949 l 848 766 l 848 68 l 916 68 z "},"៨":{"ha":1051,"x_min":203,"x_max":916,"o":"m 730 560 q 691 547 704 560 q 678 509 678 534 q 691 471 678 484 q 730 458 704 458 l 730 560 m 730 627 q 818 609 789 627 q 848 554 848 591 l 848 0 l 730 0 l 526 146 l 322 0 l 203 0 l 203 791 l 424 949 l 485 949 l 712 870 q 730 949 730 870 l 729 1017 q 848 1153 729 1153 q 916 1085 916 1153 q 848 1017 848 1085 l 848 949 q 819 831 848 870 q 734 791 791 791 l 475 882 l 445 882 l 322 793 l 322 83 l 526 228 l 730 83 l 730 390 q 641 420 670 390 q 611 509 611 450 q 641 598 611 568 q 730 627 670 627 z "},"៩":{"ha":1051,"x_min":203,"x_max":848,"o":"m 730 340 q 691 327 704 340 q 678 288 678 314 q 691 250 678 263 q 730 237 704 237 l 730 340 m 848 237 q 777 60 848 119 q 566 0 707 0 q 294 79 385 0 q 203 317 203 158 q 254 496 203 420 q 404 616 304 570 q 286 778 286 645 q 355 907 286 863 q 566 949 426 949 q 730 905 657 949 l 729 1017 q 716 1068 729 1051 q 678 1085 704 1085 q 695 1136 678 1119 q 746 1153 712 1153 q 822 1119 797 1153 q 848 1017 848 1085 l 848 751 q 789 712 848 712 q 730 751 730 712 q 689 849 730 817 q 566 882 648 882 q 445 856 485 882 q 404 778 404 830 q 454 681 404 718 q 606 644 505 644 q 817 600 723 644 q 848 554 848 585 q 828 532 848 532 q 785 545 812 532 q 606 577 723 577 q 393 512 464 577 q 322 317 322 447 q 383 130 322 193 q 566 68 444 68 q 689 94 648 68 q 730 170 730 119 q 641 199 670 170 q 611 288 611 229 q 641 378 611 348 q 730 407 670 407 q 818 385 789 407 q 848 317 848 362 l 848 237 z "}}}
